ISO-10303-21;
HEADER;
FILE_DESCRIPTION(('FreeCAD Model'),'2;1');
FILE_NAME('Open CASCADE Shape Model','2026-02-08T13:29:12',('Author'),(
    ''),'Open CASCADE STEP processor 7.8','FreeCAD','Unknown');
FILE_SCHEMA(('AUTOMOTIVE_DESIGN { 1 0 10303 214 1 1 1 1 }'));
ENDSEC;
DATA;
#1 = APPLICATION_PROTOCOL_DEFINITION('international standard',
  'automotive_design',2000,#2);
#2 = APPLICATION_CONTEXT(
  'core data for automotive mechanical design processes');
#3 = SHAPE_DEFINITION_REPRESENTATION(#4,#10);
#4 = PRODUCT_DEFINITION_SHAPE('','',#5);
#5 = PRODUCT_DEFINITION('design','',#6,#9);
#6 = PRODUCT_DEFINITION_FORMATION('','',#7);
#7 = PRODUCT('Diffuser','Diffuser','',(#8));
#8 = PRODUCT_CONTEXT('',#2,'mechanical');
#9 = PRODUCT_DEFINITION_CONTEXT('part definition',#2,'design');
#10 = SHAPE_REPRESENTATION('',(#11,#15),#19);
#11 = AXIS2_PLACEMENT_3D('',#12,#13,#14);
#12 = CARTESIAN_POINT('',(0.,0.,0.));
#13 = DIRECTION('',(0.,0.,1.));
#14 = DIRECTION('',(1.,0.,-0.));
#15 = AXIS2_PLACEMENT_3D('',#16,#17,#18);
#16 = CARTESIAN_POINT('',(0.,0.,0.));
#17 = DIRECTION('',(0.,0.,1.));
#18 = DIRECTION('',(1.,0.,0.));
#19 = ( GEOMETRIC_REPRESENTATION_CONTEXT(3) 
GLOBAL_UNCERTAINTY_ASSIGNED_CONTEXT((#23)) GLOBAL_UNIT_ASSIGNED_CONTEXT(
(#20,#21,#22)) REPRESENTATION_CONTEXT('Context #1',
  '3D Context with UNIT and UNCERTAINTY') );
#20 = ( LENGTH_UNIT() NAMED_UNIT(*) SI_UNIT(.MILLI.,.METRE.) );
#21 = ( NAMED_UNIT(*) PLANE_ANGLE_UNIT() SI_UNIT($,.RADIAN.) );
#22 = ( NAMED_UNIT(*) SI_UNIT($,.STERADIAN.) SOLID_ANGLE_UNIT() );
#23 = UNCERTAINTY_MEASURE_WITH_UNIT(LENGTH_MEASURE(1.E-07),#20,
  'distance_accuracy_value','confusion accuracy');
#24 = PRODUCT_RELATED_PRODUCT_CATEGORY('part',$,(#7));
#25 = SHAPE_DEFINITION_REPRESENTATION(#26,#32);
#26 = PRODUCT_DEFINITION_SHAPE('','',#27);
#27 = PRODUCT_DEFINITION('design','',#28,#31);
#28 = PRODUCT_DEFINITION_FORMATION('','',#29);
#29 = PRODUCT('Body001','Body001','',(#30));
#30 = PRODUCT_CONTEXT('',#2,'mechanical');
#31 = PRODUCT_DEFINITION_CONTEXT('part definition',#2,'design');
#32 = ADVANCED_BREP_SHAPE_REPRESENTATION('',(#11,#33),#897);
#33 = MANIFOLD_SOLID_BREP('',#34);
#34 = CLOSED_SHELL('',(#35,#68,#94,#290,#310,#335,#360,#385,#410,#435,
    #460,#485,#510,#535,#560,#585,#610,#635,#660,#685,#710,#735,#753,
    #762,#771,#780,#789,#798,#807,#816,#825,#834,#843,#852,#861,#870,
    #879,#888));
#35 = ADVANCED_FACE('',(#36),#63,.T.);
#36 = FACE_BOUND('',#37,.T.);
#37 = EDGE_LOOP('',(#38,#48,#55,#56));
#38 = ORIENTED_EDGE('',*,*,#39,.T.);
#39 = EDGE_CURVE('',#40,#42,#44,.T.);
#40 = VERTEX_POINT('',#41);
#41 = CARTESIAN_POINT('',(111.00227224855,-99.99999975144,8.3));
#42 = VERTEX_POINT('',#43);
#43 = CARTESIAN_POINT('',(111.00227224855,-99.99999975144,7.5));
#44 = LINE('',#45,#46);
#45 = CARTESIAN_POINT('',(111.00227224855,-99.99999975144,8.5));
#46 = VECTOR('',#47,1.);
#47 = DIRECTION('',(-0.,-0.,-1.));
#48 = ORIENTED_EDGE('',*,*,#49,.T.);
#49 = EDGE_CURVE('',#42,#42,#50,.T.);
#50 = CIRCLE('',#51,11.002272248552);
#51 = AXIS2_PLACEMENT_3D('',#52,#53,#54);
#52 = CARTESIAN_POINT('',(100.,-99.99999975144,7.5));
#53 = DIRECTION('',(0.,0.,1.));
#54 = DIRECTION('',(1.,0.,0.));
#55 = ORIENTED_EDGE('',*,*,#39,.F.);
#56 = ORIENTED_EDGE('',*,*,#57,.F.);
#57 = EDGE_CURVE('',#40,#40,#58,.T.);
#58 = CIRCLE('',#59,11.002272248552);
#59 = AXIS2_PLACEMENT_3D('',#60,#61,#62);
#60 = CARTESIAN_POINT('',(100.,-99.99999975144,8.3));
#61 = DIRECTION('',(0.,0.,1.));
#62 = DIRECTION('',(1.,0.,0.));
#63 = CYLINDRICAL_SURFACE('',#64,11.002272248552);
#64 = AXIS2_PLACEMENT_3D('',#65,#66,#67);
#65 = CARTESIAN_POINT('',(100.,-99.99999975144,8.5));
#66 = DIRECTION('',(0.,0.,1.));
#67 = DIRECTION('',(1.,0.,0.));
#68 = ADVANCED_FACE('',(#69),#89,.T.);
#69 = FACE_BOUND('',#70,.T.);
#70 = EDGE_LOOP('',(#71,#80,#81,#82));
#71 = ORIENTED_EDGE('',*,*,#72,.F.);
#72 = EDGE_CURVE('',#40,#73,#75,.T.);
#73 = VERTEX_POINT('',#74);
#74 = CARTESIAN_POINT('',(110.80227224855,-99.99999975144,8.5));
#75 = CIRCLE('',#76,0.2);
#76 = AXIS2_PLACEMENT_3D('',#77,#78,#79);
#77 = CARTESIAN_POINT('',(110.80227224855,-99.99999975144,8.3));
#78 = DIRECTION('',(0.,-1.,0.));
#79 = DIRECTION('',(1.,0.,0.));
#80 = ORIENTED_EDGE('',*,*,#57,.T.);
#81 = ORIENTED_EDGE('',*,*,#72,.T.);
#82 = ORIENTED_EDGE('',*,*,#83,.F.);
#83 = EDGE_CURVE('',#73,#73,#84,.T.);
#84 = CIRCLE('',#85,10.802272248552);
#85 = AXIS2_PLACEMENT_3D('',#86,#87,#88);
#86 = CARTESIAN_POINT('',(100.,-99.99999975144,8.5));
#87 = DIRECTION('',(0.,0.,1.));
#88 = DIRECTION('',(1.,0.,0.));
#89 = TOROIDAL_SURFACE('',#90,10.802272248552,0.2);
#90 = AXIS2_PLACEMENT_3D('',#91,#92,#93);
#91 = CARTESIAN_POINT('',(100.,-99.99999975144,8.3));
#92 = DIRECTION('',(0.,0.,1.));
#93 = DIRECTION('',(1.,0.,0.));
#94 = ADVANCED_FACE('',(#95,#98,#109,#120,#131,#142,#153,#164,#175,#186,
    #197,#208,#219,#230,#241,#252,#263,#274),#285,.F.);
#95 = FACE_BOUND('',#96,.F.);
#96 = EDGE_LOOP('',(#97));
#97 = ORIENTED_EDGE('',*,*,#49,.T.);
#98 = FACE_BOUND('',#99,.F.);
#99 = EDGE_LOOP('',(#100));
#100 = ORIENTED_EDGE('',*,*,#101,.T.);
#101 = EDGE_CURVE('',#102,#102,#104,.T.);
#102 = VERTEX_POINT('',#103);
#103 = CARTESIAN_POINT('',(92.575378797541,-106.0104073915,7.5));
#104 = CIRCLE('',#105,1.);
#105 = AXIS2_PLACEMENT_3D('',#106,#107,#108);
#106 = CARTESIAN_POINT('',(93.282485578728,-106.7175141727,7.5));
#107 = DIRECTION('',(-0.,0.,-1.));
#108 = DIRECTION('',(-0.707106781187,0.707106781187,0.));
#109 = FACE_BOUND('',#110,.F.);
#110 = EDGE_LOOP('',(#111));
#111 = ORIENTED_EDGE('',*,*,#112,.T.);
#112 = EDGE_CURVE('',#113,#113,#115,.T.);
#113 = VERTEX_POINT('',#114);
#114 = CARTESIAN_POINT('',(95.44062786002,-108.3941718779,7.5));
#115 = CIRCLE('',#116,1.);
#116 = AXIS2_PLACEMENT_3D('',#117,#118,#119);
#117 = CARTESIAN_POINT('',(96.364507392532,-108.7768553103,7.5));
#118 = DIRECTION('',(0.,0.,-1.));
#119 = DIRECTION('',(-0.923879532511,0.382683432365,0.));
#120 = FACE_BOUND('',#121,.F.);
#121 = EDGE_LOOP('',(#122));
#122 = ORIENTED_EDGE('',*,*,#123,.T.);
#123 = EDGE_CURVE('',#124,#124,#126,.T.);
#124 = VERTEX_POINT('',#125);
#125 = CARTESIAN_POINT('',(90.840461008778,-102.7116128264,7.5));
#126 = CIRCLE('',#127,1.);
#127 = AXIS2_PLACEMENT_3D('',#128,#129,#130);
#128 = CARTESIAN_POINT('',(91.223144441143,-103.6354923589,7.5));
#129 = DIRECTION('',(-0.,0.,-1.));
#130 = DIRECTION('',(-0.382683432365,0.923879532511,0.));
#131 = FACE_BOUND('',#132,.F.);
#132 = EDGE_LOOP('',(#133));
#133 = ORIENTED_EDGE('',*,*,#134,.T.);
#134 = EDGE_CURVE('',#135,#135,#137,.T.);
#135 = VERTEX_POINT('',#136);
#136 = CARTESIAN_POINT('',(90.5,-98.99999975144,7.5));
#137 = CIRCLE('',#138,1.);
#138 = AXIS2_PLACEMENT_3D('',#139,#140,#141);
#139 = CARTESIAN_POINT('',(90.5,-99.99999975144,7.5));
#140 = DIRECTION('',(0.,0.,-1.));
#141 = DIRECTION('',(0.,1.,0.));
#142 = FACE_BOUND('',#143,.F.);
#143 = EDGE_LOOP('',(#144));
#144 = ORIENTED_EDGE('',*,*,#145,.T.);
#145 = EDGE_CURVE('',#146,#146,#148,.T.);
#146 = VERTEX_POINT('',#147);
#147 = CARTESIAN_POINT('',(99.,-109.4999997514,7.5));
#148 = CIRCLE('',#149,1.);
#149 = AXIS2_PLACEMENT_3D('',#150,#151,#152);
#150 = CARTESIAN_POINT('',(100.,-109.4999997514,7.5));
#151 = DIRECTION('',(0.,0.,-1.));
#152 = DIRECTION('',(-1.,0.,0.));
#153 = FACE_BOUND('',#154,.F.);
#154 = EDGE_LOOP('',(#155));
#155 = ORIENTED_EDGE('',*,*,#156,.T.);
#156 = EDGE_CURVE('',#157,#157,#159,.T.);
#157 = VERTEX_POINT('',#158);
#158 = CARTESIAN_POINT('',(102.71161307495,-109.1595387426,7.5));
#159 = CIRCLE('',#160,1.);
#160 = AXIS2_PLACEMENT_3D('',#161,#162,#163);
#161 = CARTESIAN_POINT('',(103.63549260746,-108.7768553103,7.5));
#162 = DIRECTION('',(0.,-0.,-1.));
#163 = DIRECTION('',(-0.923879532511,-0.382683432365,0.));
#164 = FACE_BOUND('',#165,.F.);
#165 = EDGE_LOOP('',(#166));
#166 = ORIENTED_EDGE('',*,*,#167,.T.);
#167 = EDGE_CURVE('',#168,#168,#170,.T.);
#168 = VERTEX_POINT('',#169);
#169 = CARTESIAN_POINT('',(106.01040764008,-107.4246209539,7.5));
#170 = CIRCLE('',#171,1.);
#171 = AXIS2_PLACEMENT_3D('',#172,#173,#174);
#172 = CARTESIAN_POINT('',(106.71751442127,-106.7175141727,7.5));
#173 = DIRECTION('',(-0.,0.,-1.));
#174 = DIRECTION('',(-0.707106781187,-0.707106781187,0.));
#175 = FACE_BOUND('',#176,.F.);
#176 = EDGE_LOOP('',(#177));
#177 = ORIENTED_EDGE('',*,*,#178,.F.);
#178 = EDGE_CURVE('',#179,#179,#181,.T.);
#179 = VERTEX_POINT('',#180);
#180 = CARTESIAN_POINT('',(108.00227224855,-99.99999975144,7.5));
#181 = CIRCLE('',#182,8.002272248552);
#182 = AXIS2_PLACEMENT_3D('',#183,#184,#185);
#183 = CARTESIAN_POINT('',(100.,-99.99999975144,7.5));
#184 = DIRECTION('',(0.,0.,1.));
#185 = DIRECTION('',(1.,0.,0.));
#186 = FACE_BOUND('',#187,.F.);
#187 = EDGE_LOOP('',(#188));
#188 = ORIENTED_EDGE('',*,*,#189,.T.);
#189 = EDGE_CURVE('',#190,#190,#192,.T.);
#190 = VERTEX_POINT('',#191);
#191 = CARTESIAN_POINT('',(108.39417212649,-104.5593718914,7.5));
#192 = CIRCLE('',#193,1.);
#193 = AXIS2_PLACEMENT_3D('',#194,#195,#196);
#194 = CARTESIAN_POINT('',(108.77685555885,-103.6354923589,7.5));
#195 = DIRECTION('',(0.,-0.,-1.));
#196 = DIRECTION('',(-0.382683432365,-0.923879532511,0.));
#197 = FACE_BOUND('',#198,.F.);
#198 = EDGE_LOOP('',(#199));
#199 = ORIENTED_EDGE('',*,*,#200,.T.);
#200 = EDGE_CURVE('',#201,#201,#203,.T.);
#201 = VERTEX_POINT('',#202);
#202 = CARTESIAN_POINT('',(109.5,-100.9999997514,7.5));
#203 = CIRCLE('',#204,1.);
#204 = AXIS2_PLACEMENT_3D('',#205,#206,#207);
#205 = CARTESIAN_POINT('',(109.5,-99.99999975144,7.5));
#206 = DIRECTION('',(-0.,-0.,-1.));
#207 = DIRECTION('',(0.,-1.,0.));
#208 = FACE_BOUND('',#209,.F.);
#209 = EDGE_LOOP('',(#210));
#210 = ORIENTED_EDGE('',*,*,#211,.T.);
#211 = EDGE_CURVE('',#212,#212,#214,.T.);
#212 = VERTEX_POINT('',#213);
#213 = CARTESIAN_POINT('',(91.605827873508,-95.44062761146,7.5));
#214 = CIRCLE('',#215,1.);
#215 = AXIS2_PLACEMENT_3D('',#216,#217,#218);
#216 = CARTESIAN_POINT('',(91.223144441143,-96.36450714397,7.5));
#217 = DIRECTION('',(0.,0.,-1.));
#218 = DIRECTION('',(0.382683432365,0.923879532511,0.));
#219 = FACE_BOUND('',#220,.F.);
#220 = EDGE_LOOP('',(#221));
#221 = ORIENTED_EDGE('',*,*,#222,.T.);
#222 = EDGE_CURVE('',#223,#223,#225,.T.);
#223 = VERTEX_POINT('',#224);
#224 = CARTESIAN_POINT('',(93.989592359914,-92.57537854898,7.5));
#225 = CIRCLE('',#226,1.);
#226 = AXIS2_PLACEMENT_3D('',#227,#228,#229);
#227 = CARTESIAN_POINT('',(93.282485578728,-93.28248533017,7.5));
#228 = DIRECTION('',(0.,0.,-1.));
#229 = DIRECTION('',(0.707106781187,0.707106781187,0.));
#230 = FACE_BOUND('',#231,.F.);
#231 = EDGE_LOOP('',(#232));
#232 = ORIENTED_EDGE('',*,*,#233,.T.);
#233 = EDGE_CURVE('',#234,#234,#236,.T.);
#234 = VERTEX_POINT('',#235);
#235 = CARTESIAN_POINT('',(97.288386925043,-90.84046076022,7.5));
#236 = CIRCLE('',#237,1.);
#237 = AXIS2_PLACEMENT_3D('',#238,#239,#240);
#238 = CARTESIAN_POINT('',(96.364507392532,-91.22314419259,7.5));
#239 = DIRECTION('',(0.,0.,-1.));
#240 = DIRECTION('',(0.923879532511,0.382683432365,0.));
#241 = FACE_BOUND('',#242,.F.);
#242 = EDGE_LOOP('',(#243));
#243 = ORIENTED_EDGE('',*,*,#244,.T.);
#244 = EDGE_CURVE('',#245,#245,#247,.T.);
#245 = VERTEX_POINT('',#246);
#246 = CARTESIAN_POINT('',(109.15953899122,-97.28838667649,7.5));
#247 = CIRCLE('',#248,1.);
#248 = AXIS2_PLACEMENT_3D('',#249,#250,#251);
#249 = CARTESIAN_POINT('',(108.77685555885,-96.36450714397,7.5));
#250 = DIRECTION('',(0.,-0.,-1.));
#251 = DIRECTION('',(0.382683432365,-0.923879532511,0.));
#252 = FACE_BOUND('',#253,.F.);
#253 = EDGE_LOOP('',(#254));
#254 = ORIENTED_EDGE('',*,*,#255,.T.);
#255 = EDGE_CURVE('',#256,#256,#258,.T.);
#256 = VERTEX_POINT('',#257);
#257 = CARTESIAN_POINT('',(101.,-90.49999975144,7.5));
#258 = CIRCLE('',#259,1.);
#259 = AXIS2_PLACEMENT_3D('',#260,#261,#262);
#260 = CARTESIAN_POINT('',(100.,-90.49999975144,7.5));
#261 = DIRECTION('',(0.,0.,-1.));
#262 = DIRECTION('',(1.,0.,0.));
#263 = FACE_BOUND('',#264,.F.);
#264 = EDGE_LOOP('',(#265));
#265 = ORIENTED_EDGE('',*,*,#266,.T.);
#266 = EDGE_CURVE('',#267,#267,#269,.T.);
#267 = VERTEX_POINT('',#268);
#268 = CARTESIAN_POINT('',(104.55937213998,-91.60582762495,7.5));
#269 = CIRCLE('',#270,1.);
#270 = AXIS2_PLACEMENT_3D('',#271,#272,#273);
#271 = CARTESIAN_POINT('',(103.63549260746,-91.22314419259,7.5));
#272 = DIRECTION('',(0.,-0.,-1.));
#273 = DIRECTION('',(0.923879532511,-0.382683432365,0.));
#274 = FACE_BOUND('',#275,.F.);
#275 = EDGE_LOOP('',(#276));
#276 = ORIENTED_EDGE('',*,*,#277,.T.);
#277 = EDGE_CURVE('',#278,#278,#280,.T.);
#278 = VERTEX_POINT('',#279);
#279 = CARTESIAN_POINT('',(107.42462120245,-93.98959211136,7.5));
#280 = CIRCLE('',#281,1.);
#281 = AXIS2_PLACEMENT_3D('',#282,#283,#284);
#282 = CARTESIAN_POINT('',(106.71751442127,-93.28248533017,7.5));
#283 = DIRECTION('',(0.,0.,-1.));
#284 = DIRECTION('',(0.707106781187,-0.707106781187,0.));
#285 = PLANE('',#286);
#286 = AXIS2_PLACEMENT_3D('',#287,#288,#289);
#287 = CARTESIAN_POINT('',(100.,-99.99999975144,7.5));
#288 = DIRECTION('',(0.,0.,1.));
#289 = DIRECTION('',(1.,0.,0.));
#290 = ADVANCED_FACE('',(#291,#294),#305,.T.);
#291 = FACE_BOUND('',#292,.T.);
#292 = EDGE_LOOP('',(#293));
#293 = ORIENTED_EDGE('',*,*,#83,.T.);
#294 = FACE_BOUND('',#295,.T.);
#295 = EDGE_LOOP('',(#296));
#296 = ORIENTED_EDGE('',*,*,#297,.F.);
#297 = EDGE_CURVE('',#298,#298,#300,.T.);
#298 = VERTEX_POINT('',#299);
#299 = CARTESIAN_POINT('',(108.20227224855,-99.99999975144,8.5));
#300 = CIRCLE('',#301,8.202272248552);
#301 = AXIS2_PLACEMENT_3D('',#302,#303,#304);
#302 = CARTESIAN_POINT('',(100.,-99.99999975144,8.5));
#303 = DIRECTION('',(0.,0.,1.));
#304 = DIRECTION('',(1.,0.,0.));
#305 = PLANE('',#306);
#306 = AXIS2_PLACEMENT_3D('',#307,#308,#309);
#307 = CARTESIAN_POINT('',(100.,-99.99999975144,8.5));
#308 = DIRECTION('',(0.,0.,1.));
#309 = DIRECTION('',(1.,0.,0.));
#310 = ADVANCED_FACE('',(#311),#330,.T.);
#311 = FACE_BOUND('',#312,.F.);
#312 = EDGE_LOOP('',(#313,#321,#328,#329));
#313 = ORIENTED_EDGE('',*,*,#314,.F.);
#314 = EDGE_CURVE('',#315,#102,#317,.T.);
#315 = VERTEX_POINT('',#316);
#316 = CARTESIAN_POINT('',(92.575378797541,-106.0104073915,1.013));
#317 = LINE('',#318,#319);
#318 = CARTESIAN_POINT('',(92.575378797541,-106.0104073915,1.013));
#319 = VECTOR('',#320,1.);
#320 = DIRECTION('',(0.,0.,1.));
#321 = ORIENTED_EDGE('',*,*,#322,.F.);
#322 = EDGE_CURVE('',#315,#315,#323,.T.);
#323 = CIRCLE('',#324,1.);
#324 = AXIS2_PLACEMENT_3D('',#325,#326,#327);
#325 = CARTESIAN_POINT('',(93.282485578728,-106.7175141727,1.013));
#326 = DIRECTION('',(0.,0.,1.));
#327 = DIRECTION('',(-0.707106781187,0.707106781187,0.));
#328 = ORIENTED_EDGE('',*,*,#314,.T.);
#329 = ORIENTED_EDGE('',*,*,#101,.F.);
#330 = CYLINDRICAL_SURFACE('',#331,1.);
#331 = AXIS2_PLACEMENT_3D('',#332,#333,#334);
#332 = CARTESIAN_POINT('',(93.282485578728,-106.7175141727,1.013));
#333 = DIRECTION('',(-0.,0.,-1.));
#334 = DIRECTION('',(-0.707106781187,0.707106781187,0.));
#335 = ADVANCED_FACE('',(#336),#355,.T.);
#336 = FACE_BOUND('',#337,.F.);
#337 = EDGE_LOOP('',(#338,#346,#353,#354));
#338 = ORIENTED_EDGE('',*,*,#339,.F.);
#339 = EDGE_CURVE('',#340,#113,#342,.T.);
#340 = VERTEX_POINT('',#341);
#341 = CARTESIAN_POINT('',(95.44062786002,-108.3941718779,1.013));
#342 = LINE('',#343,#344);
#343 = CARTESIAN_POINT('',(95.44062786002,-108.3941718779,1.013));
#344 = VECTOR('',#345,1.);
#345 = DIRECTION('',(0.,0.,1.));
#346 = ORIENTED_EDGE('',*,*,#347,.F.);
#347 = EDGE_CURVE('',#340,#340,#348,.T.);
#348 = CIRCLE('',#349,1.);
#349 = AXIS2_PLACEMENT_3D('',#350,#351,#352);
#350 = CARTESIAN_POINT('',(96.364507392532,-108.7768553103,1.013));
#351 = DIRECTION('',(0.,0.,1.));
#352 = DIRECTION('',(-0.923879532511,0.382683432365,0.));
#353 = ORIENTED_EDGE('',*,*,#339,.T.);
#354 = ORIENTED_EDGE('',*,*,#112,.F.);
#355 = CYLINDRICAL_SURFACE('',#356,1.);
#356 = AXIS2_PLACEMENT_3D('',#357,#358,#359);
#357 = CARTESIAN_POINT('',(96.364507392532,-108.7768553103,1.013));
#358 = DIRECTION('',(0.,0.,-1.));
#359 = DIRECTION('',(-0.923879532511,0.382683432365,0.));
#360 = ADVANCED_FACE('',(#361),#380,.T.);
#361 = FACE_BOUND('',#362,.F.);
#362 = EDGE_LOOP('',(#363,#371,#378,#379));
#363 = ORIENTED_EDGE('',*,*,#364,.F.);
#364 = EDGE_CURVE('',#365,#124,#367,.T.);
#365 = VERTEX_POINT('',#366);
#366 = CARTESIAN_POINT('',(90.840461008778,-102.7116128264,1.013));
#367 = LINE('',#368,#369);
#368 = CARTESIAN_POINT('',(90.840461008778,-102.7116128264,1.013));
#369 = VECTOR('',#370,1.);
#370 = DIRECTION('',(0.,0.,1.));
#371 = ORIENTED_EDGE('',*,*,#372,.F.);
#372 = EDGE_CURVE('',#365,#365,#373,.T.);
#373 = CIRCLE('',#374,1.);
#374 = AXIS2_PLACEMENT_3D('',#375,#376,#377);
#375 = CARTESIAN_POINT('',(91.223144441143,-103.6354923589,1.013));
#376 = DIRECTION('',(0.,0.,1.));
#377 = DIRECTION('',(-0.382683432365,0.923879532511,0.));
#378 = ORIENTED_EDGE('',*,*,#364,.T.);
#379 = ORIENTED_EDGE('',*,*,#123,.F.);
#380 = CYLINDRICAL_SURFACE('',#381,1.);
#381 = AXIS2_PLACEMENT_3D('',#382,#383,#384);
#382 = CARTESIAN_POINT('',(91.223144441143,-103.6354923589,1.013));
#383 = DIRECTION('',(-0.,0.,-1.));
#384 = DIRECTION('',(-0.382683432365,0.923879532511,0.));
#385 = ADVANCED_FACE('',(#386),#405,.T.);
#386 = FACE_BOUND('',#387,.F.);
#387 = EDGE_LOOP('',(#388,#396,#403,#404));
#388 = ORIENTED_EDGE('',*,*,#389,.F.);
#389 = EDGE_CURVE('',#390,#135,#392,.T.);
#390 = VERTEX_POINT('',#391);
#391 = CARTESIAN_POINT('',(90.5,-98.99999975144,1.013));
#392 = LINE('',#393,#394);
#393 = CARTESIAN_POINT('',(90.5,-98.99999975144,1.013));
#394 = VECTOR('',#395,1.);
#395 = DIRECTION('',(0.,0.,1.));
#396 = ORIENTED_EDGE('',*,*,#397,.F.);
#397 = EDGE_CURVE('',#390,#390,#398,.T.);
#398 = CIRCLE('',#399,1.);
#399 = AXIS2_PLACEMENT_3D('',#400,#401,#402);
#400 = CARTESIAN_POINT('',(90.5,-99.99999975144,1.013));
#401 = DIRECTION('',(0.,-0.,1.));
#402 = DIRECTION('',(0.,1.,0.));
#403 = ORIENTED_EDGE('',*,*,#389,.T.);
#404 = ORIENTED_EDGE('',*,*,#134,.F.);
#405 = CYLINDRICAL_SURFACE('',#406,1.);
#406 = AXIS2_PLACEMENT_3D('',#407,#408,#409);
#407 = CARTESIAN_POINT('',(90.5,-99.99999975144,1.013));
#408 = DIRECTION('',(0.,-0.,-1.));
#409 = DIRECTION('',(0.,1.,0.));
#410 = ADVANCED_FACE('',(#411),#430,.T.);
#411 = FACE_BOUND('',#412,.F.);
#412 = EDGE_LOOP('',(#413,#421,#428,#429));
#413 = ORIENTED_EDGE('',*,*,#414,.F.);
#414 = EDGE_CURVE('',#415,#146,#417,.T.);
#415 = VERTEX_POINT('',#416);
#416 = CARTESIAN_POINT('',(99.,-109.4999997514,1.013));
#417 = LINE('',#418,#419);
#418 = CARTESIAN_POINT('',(99.,-109.4999997514,1.013));
#419 = VECTOR('',#420,1.);
#420 = DIRECTION('',(0.,0.,1.));
#421 = ORIENTED_EDGE('',*,*,#422,.F.);
#422 = EDGE_CURVE('',#415,#415,#423,.T.);
#423 = CIRCLE('',#424,1.);
#424 = AXIS2_PLACEMENT_3D('',#425,#426,#427);
#425 = CARTESIAN_POINT('',(100.,-109.4999997514,1.013));
#426 = DIRECTION('',(0.,0.,1.));
#427 = DIRECTION('',(-1.,0.,0.));
#428 = ORIENTED_EDGE('',*,*,#414,.T.);
#429 = ORIENTED_EDGE('',*,*,#145,.F.);
#430 = CYLINDRICAL_SURFACE('',#431,1.);
#431 = AXIS2_PLACEMENT_3D('',#432,#433,#434);
#432 = CARTESIAN_POINT('',(100.,-109.4999997514,1.013));
#433 = DIRECTION('',(0.,0.,-1.));
#434 = DIRECTION('',(-1.,0.,0.));
#435 = ADVANCED_FACE('',(#436),#455,.T.);
#436 = FACE_BOUND('',#437,.F.);
#437 = EDGE_LOOP('',(#438,#446,#453,#454));
#438 = ORIENTED_EDGE('',*,*,#439,.F.);
#439 = EDGE_CURVE('',#440,#157,#442,.T.);
#440 = VERTEX_POINT('',#441);
#441 = CARTESIAN_POINT('',(102.71161307495,-109.1595387426,1.013));
#442 = LINE('',#443,#444);
#443 = CARTESIAN_POINT('',(102.71161307495,-109.1595387426,1.013));
#444 = VECTOR('',#445,1.);
#445 = DIRECTION('',(0.,0.,1.));
#446 = ORIENTED_EDGE('',*,*,#447,.F.);
#447 = EDGE_CURVE('',#440,#440,#448,.T.);
#448 = CIRCLE('',#449,1.);
#449 = AXIS2_PLACEMENT_3D('',#450,#451,#452);
#450 = CARTESIAN_POINT('',(103.63549260746,-108.7768553103,1.013));
#451 = DIRECTION('',(0.,0.,1.));
#452 = DIRECTION('',(-0.923879532511,-0.382683432365,0.));
#453 = ORIENTED_EDGE('',*,*,#439,.T.);
#454 = ORIENTED_EDGE('',*,*,#156,.F.);
#455 = CYLINDRICAL_SURFACE('',#456,1.);
#456 = AXIS2_PLACEMENT_3D('',#457,#458,#459);
#457 = CARTESIAN_POINT('',(103.63549260746,-108.7768553103,1.013));
#458 = DIRECTION('',(0.,-0.,-1.));
#459 = DIRECTION('',(-0.923879532511,-0.382683432365,0.));
#460 = ADVANCED_FACE('',(#461),#480,.T.);
#461 = FACE_BOUND('',#462,.F.);
#462 = EDGE_LOOP('',(#463,#471,#478,#479));
#463 = ORIENTED_EDGE('',*,*,#464,.F.);
#464 = EDGE_CURVE('',#465,#168,#467,.T.);
#465 = VERTEX_POINT('',#466);
#466 = CARTESIAN_POINT('',(106.01040764008,-107.4246209539,1.013));
#467 = LINE('',#468,#469);
#468 = CARTESIAN_POINT('',(106.01040764008,-107.4246209539,1.013));
#469 = VECTOR('',#470,1.);
#470 = DIRECTION('',(0.,0.,1.));
#471 = ORIENTED_EDGE('',*,*,#472,.F.);
#472 = EDGE_CURVE('',#465,#465,#473,.T.);
#473 = CIRCLE('',#474,1.);
#474 = AXIS2_PLACEMENT_3D('',#475,#476,#477);
#475 = CARTESIAN_POINT('',(106.71751442127,-106.7175141727,1.013));
#476 = DIRECTION('',(0.,0.,1.));
#477 = DIRECTION('',(-0.707106781187,-0.707106781187,0.));
#478 = ORIENTED_EDGE('',*,*,#464,.T.);
#479 = ORIENTED_EDGE('',*,*,#167,.F.);
#480 = CYLINDRICAL_SURFACE('',#481,1.);
#481 = AXIS2_PLACEMENT_3D('',#482,#483,#484);
#482 = CARTESIAN_POINT('',(106.71751442127,-106.7175141727,1.013));
#483 = DIRECTION('',(0.,0.,-1.));
#484 = DIRECTION('',(-0.707106781187,-0.707106781187,0.));
#485 = ADVANCED_FACE('',(#486),#505,.F.);
#486 = FACE_BOUND('',#487,.F.);
#487 = EDGE_LOOP('',(#488,#496,#497,#498));
#488 = ORIENTED_EDGE('',*,*,#489,.T.);
#489 = EDGE_CURVE('',#490,#179,#492,.T.);
#490 = VERTEX_POINT('',#491);
#491 = CARTESIAN_POINT('',(108.00227224855,-99.99999975144,8.3));
#492 = LINE('',#493,#494);
#493 = CARTESIAN_POINT('',(108.00227224855,-99.99999975144,8.5));
#494 = VECTOR('',#495,1.);
#495 = DIRECTION('',(-0.,-0.,-1.));
#496 = ORIENTED_EDGE('',*,*,#178,.T.);
#497 = ORIENTED_EDGE('',*,*,#489,.F.);
#498 = ORIENTED_EDGE('',*,*,#499,.F.);
#499 = EDGE_CURVE('',#490,#490,#500,.T.);
#500 = CIRCLE('',#501,8.002272248552);
#501 = AXIS2_PLACEMENT_3D('',#502,#503,#504);
#502 = CARTESIAN_POINT('',(100.,-99.99999975144,8.3));
#503 = DIRECTION('',(0.,0.,1.));
#504 = DIRECTION('',(1.,0.,0.));
#505 = CYLINDRICAL_SURFACE('',#506,8.002272248552);
#506 = AXIS2_PLACEMENT_3D('',#507,#508,#509);
#507 = CARTESIAN_POINT('',(100.,-99.99999975144,8.5));
#508 = DIRECTION('',(0.,0.,1.));
#509 = DIRECTION('',(1.,0.,0.));
#510 = ADVANCED_FACE('',(#511),#530,.T.);
#511 = FACE_BOUND('',#512,.F.);
#512 = EDGE_LOOP('',(#513,#521,#528,#529));
#513 = ORIENTED_EDGE('',*,*,#514,.F.);
#514 = EDGE_CURVE('',#515,#190,#517,.T.);
#515 = VERTEX_POINT('',#516);
#516 = CARTESIAN_POINT('',(108.39417212649,-104.5593718914,1.013));
#517 = LINE('',#518,#519);
#518 = CARTESIAN_POINT('',(108.39417212649,-104.5593718914,1.013));
#519 = VECTOR('',#520,1.);
#520 = DIRECTION('',(0.,0.,1.));
#521 = ORIENTED_EDGE('',*,*,#522,.F.);
#522 = EDGE_CURVE('',#515,#515,#523,.T.);
#523 = CIRCLE('',#524,1.);
#524 = AXIS2_PLACEMENT_3D('',#525,#526,#527);
#525 = CARTESIAN_POINT('',(108.77685555885,-103.6354923589,1.013));
#526 = DIRECTION('',(0.,0.,1.));
#527 = DIRECTION('',(-0.382683432365,-0.923879532511,0.));
#528 = ORIENTED_EDGE('',*,*,#514,.T.);
#529 = ORIENTED_EDGE('',*,*,#189,.F.);
#530 = CYLINDRICAL_SURFACE('',#531,1.);
#531 = AXIS2_PLACEMENT_3D('',#532,#533,#534);
#532 = CARTESIAN_POINT('',(108.77685555885,-103.6354923589,1.013));
#533 = DIRECTION('',(0.,-0.,-1.));
#534 = DIRECTION('',(-0.382683432365,-0.923879532511,0.));
#535 = ADVANCED_FACE('',(#536),#555,.T.);
#536 = FACE_BOUND('',#537,.F.);
#537 = EDGE_LOOP('',(#538,#546,#553,#554));
#538 = ORIENTED_EDGE('',*,*,#539,.F.);
#539 = EDGE_CURVE('',#540,#201,#542,.T.);
#540 = VERTEX_POINT('',#541);
#541 = CARTESIAN_POINT('',(109.5,-100.9999997514,1.013));
#542 = LINE('',#543,#544);
#543 = CARTESIAN_POINT('',(109.5,-100.9999997514,1.013));
#544 = VECTOR('',#545,1.);
#545 = DIRECTION('',(0.,0.,1.));
#546 = ORIENTED_EDGE('',*,*,#547,.F.);
#547 = EDGE_CURVE('',#540,#540,#548,.T.);
#548 = CIRCLE('',#549,1.);
#549 = AXIS2_PLACEMENT_3D('',#550,#551,#552);
#550 = CARTESIAN_POINT('',(109.5,-99.99999975144,1.013));
#551 = DIRECTION('',(-0.,0.,1.));
#552 = DIRECTION('',(0.,-1.,0.));
#553 = ORIENTED_EDGE('',*,*,#539,.T.);
#554 = ORIENTED_EDGE('',*,*,#200,.F.);
#555 = CYLINDRICAL_SURFACE('',#556,1.);
#556 = AXIS2_PLACEMENT_3D('',#557,#558,#559);
#557 = CARTESIAN_POINT('',(109.5,-99.99999975144,1.013));
#558 = DIRECTION('',(-0.,0.,-1.));
#559 = DIRECTION('',(0.,-1.,0.));
#560 = ADVANCED_FACE('',(#561),#580,.T.);
#561 = FACE_BOUND('',#562,.F.);
#562 = EDGE_LOOP('',(#563,#571,#578,#579));
#563 = ORIENTED_EDGE('',*,*,#564,.F.);
#564 = EDGE_CURVE('',#565,#212,#567,.T.);
#565 = VERTEX_POINT('',#566);
#566 = CARTESIAN_POINT('',(91.605827873508,-95.44062761146,1.013));
#567 = LINE('',#568,#569);
#568 = CARTESIAN_POINT('',(91.605827873508,-95.44062761146,1.013));
#569 = VECTOR('',#570,1.);
#570 = DIRECTION('',(0.,0.,1.));
#571 = ORIENTED_EDGE('',*,*,#572,.F.);
#572 = EDGE_CURVE('',#565,#565,#573,.T.);
#573 = CIRCLE('',#574,1.);
#574 = AXIS2_PLACEMENT_3D('',#575,#576,#577);
#575 = CARTESIAN_POINT('',(91.223144441143,-96.36450714397,1.013));
#576 = DIRECTION('',(0.,-0.,1.));
#577 = DIRECTION('',(0.382683432365,0.923879532511,0.));
#578 = ORIENTED_EDGE('',*,*,#564,.T.);
#579 = ORIENTED_EDGE('',*,*,#211,.F.);
#580 = CYLINDRICAL_SURFACE('',#581,1.);
#581 = AXIS2_PLACEMENT_3D('',#582,#583,#584);
#582 = CARTESIAN_POINT('',(91.223144441143,-96.36450714397,1.013));
#583 = DIRECTION('',(0.,-0.,-1.));
#584 = DIRECTION('',(0.382683432365,0.923879532511,0.));
#585 = ADVANCED_FACE('',(#586),#605,.T.);
#586 = FACE_BOUND('',#587,.F.);
#587 = EDGE_LOOP('',(#588,#596,#603,#604));
#588 = ORIENTED_EDGE('',*,*,#589,.F.);
#589 = EDGE_CURVE('',#590,#223,#592,.T.);
#590 = VERTEX_POINT('',#591);
#591 = CARTESIAN_POINT('',(93.989592359914,-92.57537854898,1.013));
#592 = LINE('',#593,#594);
#593 = CARTESIAN_POINT('',(93.989592359914,-92.57537854898,1.013));
#594 = VECTOR('',#595,1.);
#595 = DIRECTION('',(0.,0.,1.));
#596 = ORIENTED_EDGE('',*,*,#597,.F.);
#597 = EDGE_CURVE('',#590,#590,#598,.T.);
#598 = CIRCLE('',#599,1.);
#599 = AXIS2_PLACEMENT_3D('',#600,#601,#602);
#600 = CARTESIAN_POINT('',(93.282485578728,-93.28248533017,1.013));
#601 = DIRECTION('',(0.,-0.,1.));
#602 = DIRECTION('',(0.707106781187,0.707106781187,0.));
#603 = ORIENTED_EDGE('',*,*,#589,.T.);
#604 = ORIENTED_EDGE('',*,*,#222,.F.);
#605 = CYLINDRICAL_SURFACE('',#606,1.);
#606 = AXIS2_PLACEMENT_3D('',#607,#608,#609);
#607 = CARTESIAN_POINT('',(93.282485578728,-93.28248533017,1.013));
#608 = DIRECTION('',(0.,-0.,-1.));
#609 = DIRECTION('',(0.707106781187,0.707106781187,0.));
#610 = ADVANCED_FACE('',(#611),#630,.T.);
#611 = FACE_BOUND('',#612,.F.);
#612 = EDGE_LOOP('',(#613,#621,#628,#629));
#613 = ORIENTED_EDGE('',*,*,#614,.F.);
#614 = EDGE_CURVE('',#615,#234,#617,.T.);
#615 = VERTEX_POINT('',#616);
#616 = CARTESIAN_POINT('',(97.288386925043,-90.84046076022,1.013));
#617 = LINE('',#618,#619);
#618 = CARTESIAN_POINT('',(97.288386925043,-90.84046076022,1.013));
#619 = VECTOR('',#620,1.);
#620 = DIRECTION('',(0.,0.,1.));
#621 = ORIENTED_EDGE('',*,*,#622,.F.);
#622 = EDGE_CURVE('',#615,#615,#623,.T.);
#623 = CIRCLE('',#624,1.);
#624 = AXIS2_PLACEMENT_3D('',#625,#626,#627);
#625 = CARTESIAN_POINT('',(96.364507392532,-91.22314419259,1.013));
#626 = DIRECTION('',(0.,-0.,1.));
#627 = DIRECTION('',(0.923879532511,0.382683432365,0.));
#628 = ORIENTED_EDGE('',*,*,#614,.T.);
#629 = ORIENTED_EDGE('',*,*,#233,.F.);
#630 = CYLINDRICAL_SURFACE('',#631,1.);
#631 = AXIS2_PLACEMENT_3D('',#632,#633,#634);
#632 = CARTESIAN_POINT('',(96.364507392532,-91.22314419259,1.013));
#633 = DIRECTION('',(0.,-0.,-1.));
#634 = DIRECTION('',(0.923879532511,0.382683432365,0.));
#635 = ADVANCED_FACE('',(#636),#655,.T.);
#636 = FACE_BOUND('',#637,.F.);
#637 = EDGE_LOOP('',(#638,#646,#653,#654));
#638 = ORIENTED_EDGE('',*,*,#639,.F.);
#639 = EDGE_CURVE('',#640,#245,#642,.T.);
#640 = VERTEX_POINT('',#641);
#641 = CARTESIAN_POINT('',(109.15953899122,-97.28838667649,1.013));
#642 = LINE('',#643,#644);
#643 = CARTESIAN_POINT('',(109.15953899122,-97.28838667649,1.013));
#644 = VECTOR('',#645,1.);
#645 = DIRECTION('',(0.,0.,1.));
#646 = ORIENTED_EDGE('',*,*,#647,.F.);
#647 = EDGE_CURVE('',#640,#640,#648,.T.);
#648 = CIRCLE('',#649,1.);
#649 = AXIS2_PLACEMENT_3D('',#650,#651,#652);
#650 = CARTESIAN_POINT('',(108.77685555885,-96.36450714397,1.013));
#651 = DIRECTION('',(-0.,0.,1.));
#652 = DIRECTION('',(0.382683432365,-0.923879532511,0.));
#653 = ORIENTED_EDGE('',*,*,#639,.T.);
#654 = ORIENTED_EDGE('',*,*,#244,.F.);
#655 = CYLINDRICAL_SURFACE('',#656,1.);
#656 = AXIS2_PLACEMENT_3D('',#657,#658,#659);
#657 = CARTESIAN_POINT('',(108.77685555885,-96.36450714397,1.013));
#658 = DIRECTION('',(-0.,0.,-1.));
#659 = DIRECTION('',(0.382683432365,-0.923879532511,0.));
#660 = ADVANCED_FACE('',(#661),#680,.T.);
#661 = FACE_BOUND('',#662,.F.);
#662 = EDGE_LOOP('',(#663,#671,#678,#679));
#663 = ORIENTED_EDGE('',*,*,#664,.F.);
#664 = EDGE_CURVE('',#665,#256,#667,.T.);
#665 = VERTEX_POINT('',#666);
#666 = CARTESIAN_POINT('',(101.,-90.49999975144,1.013));
#667 = LINE('',#668,#669);
#668 = CARTESIAN_POINT('',(101.,-90.49999975144,1.013));
#669 = VECTOR('',#670,1.);
#670 = DIRECTION('',(0.,0.,1.));
#671 = ORIENTED_EDGE('',*,*,#672,.F.);
#672 = EDGE_CURVE('',#665,#665,#673,.T.);
#673 = CIRCLE('',#674,1.);
#674 = AXIS2_PLACEMENT_3D('',#675,#676,#677);
#675 = CARTESIAN_POINT('',(100.,-90.49999975144,1.013));
#676 = DIRECTION('',(0.,0.,1.));
#677 = DIRECTION('',(1.,0.,0.));
#678 = ORIENTED_EDGE('',*,*,#664,.T.);
#679 = ORIENTED_EDGE('',*,*,#255,.F.);
#680 = CYLINDRICAL_SURFACE('',#681,1.);
#681 = AXIS2_PLACEMENT_3D('',#682,#683,#684);
#682 = CARTESIAN_POINT('',(100.,-90.49999975144,1.013));
#683 = DIRECTION('',(-0.,-0.,-1.));
#684 = DIRECTION('',(1.,0.,0.));
#685 = ADVANCED_FACE('',(#686),#705,.T.);
#686 = FACE_BOUND('',#687,.F.);
#687 = EDGE_LOOP('',(#688,#696,#703,#704));
#688 = ORIENTED_EDGE('',*,*,#689,.F.);
#689 = EDGE_CURVE('',#690,#267,#692,.T.);
#690 = VERTEX_POINT('',#691);
#691 = CARTESIAN_POINT('',(104.55937213998,-91.60582762495,1.013));
#692 = LINE('',#693,#694);
#693 = CARTESIAN_POINT('',(104.55937213998,-91.60582762495,1.013));
#694 = VECTOR('',#695,1.);
#695 = DIRECTION('',(0.,0.,1.));
#696 = ORIENTED_EDGE('',*,*,#697,.F.);
#697 = EDGE_CURVE('',#690,#690,#698,.T.);
#698 = CIRCLE('',#699,1.);
#699 = AXIS2_PLACEMENT_3D('',#700,#701,#702);
#700 = CARTESIAN_POINT('',(103.63549260746,-91.22314419259,1.013));
#701 = DIRECTION('',(-0.,0.,1.));
#702 = DIRECTION('',(0.923879532511,-0.382683432365,0.));
#703 = ORIENTED_EDGE('',*,*,#689,.T.);
#704 = ORIENTED_EDGE('',*,*,#266,.F.);
#705 = CYLINDRICAL_SURFACE('',#706,1.);
#706 = AXIS2_PLACEMENT_3D('',#707,#708,#709);
#707 = CARTESIAN_POINT('',(103.63549260746,-91.22314419259,1.013));
#708 = DIRECTION('',(-0.,0.,-1.));
#709 = DIRECTION('',(0.923879532511,-0.382683432365,0.));
#710 = ADVANCED_FACE('',(#711),#730,.T.);
#711 = FACE_BOUND('',#712,.F.);
#712 = EDGE_LOOP('',(#713,#721,#728,#729));
#713 = ORIENTED_EDGE('',*,*,#714,.F.);
#714 = EDGE_CURVE('',#715,#278,#717,.T.);
#715 = VERTEX_POINT('',#716);
#716 = CARTESIAN_POINT('',(107.42462120245,-93.98959211136,1.013));
#717 = LINE('',#718,#719);
#718 = CARTESIAN_POINT('',(107.42462120245,-93.98959211136,1.013));
#719 = VECTOR('',#720,1.);
#720 = DIRECTION('',(0.,0.,1.));
#721 = ORIENTED_EDGE('',*,*,#722,.F.);
#722 = EDGE_CURVE('',#715,#715,#723,.T.);
#723 = CIRCLE('',#724,1.);
#724 = AXIS2_PLACEMENT_3D('',#725,#726,#727);
#725 = CARTESIAN_POINT('',(106.71751442127,-93.28248533017,1.013));
#726 = DIRECTION('',(-0.,0.,1.));
#727 = DIRECTION('',(0.707106781187,-0.707106781187,0.));
#728 = ORIENTED_EDGE('',*,*,#714,.T.);
#729 = ORIENTED_EDGE('',*,*,#277,.F.);
#730 = CYLINDRICAL_SURFACE('',#731,1.);
#731 = AXIS2_PLACEMENT_3D('',#732,#733,#734);
#732 = CARTESIAN_POINT('',(106.71751442127,-93.28248533017,1.013));
#733 = DIRECTION('',(0.,0.,-1.));
#734 = DIRECTION('',(0.707106781187,-0.707106781187,0.));
#735 = ADVANCED_FACE('',(#736),#748,.T.);
#736 = FACE_BOUND('',#737,.F.);
#737 = EDGE_LOOP('',(#738,#745,#746,#747));
#738 = ORIENTED_EDGE('',*,*,#739,.F.);
#739 = EDGE_CURVE('',#490,#298,#740,.T.);
#740 = CIRCLE('',#741,0.2);
#741 = AXIS2_PLACEMENT_3D('',#742,#743,#744);
#742 = CARTESIAN_POINT('',(108.20227224855,-99.99999975144,8.3));
#743 = DIRECTION('',(-0.,1.,0.));
#744 = DIRECTION('',(1.,0.,0.));
#745 = ORIENTED_EDGE('',*,*,#499,.F.);
#746 = ORIENTED_EDGE('',*,*,#739,.T.);
#747 = ORIENTED_EDGE('',*,*,#297,.T.);
#748 = TOROIDAL_SURFACE('',#749,8.202272248552,0.2);
#749 = AXIS2_PLACEMENT_3D('',#750,#751,#752);
#750 = CARTESIAN_POINT('',(100.,-99.99999975144,8.3));
#751 = DIRECTION('',(-0.,-0.,-1.));
#752 = DIRECTION('',(1.,0.,0.));
#753 = ADVANCED_FACE('',(#754),#757,.F.);
#754 = FACE_BOUND('',#755,.F.);
#755 = EDGE_LOOP('',(#756));
#756 = ORIENTED_EDGE('',*,*,#322,.T.);
#757 = PLANE('',#758);
#758 = AXIS2_PLACEMENT_3D('',#759,#760,#761);
#759 = CARTESIAN_POINT('',(93.282485578728,-106.7175141727,1.013));
#760 = DIRECTION('',(0.,0.,1.));
#761 = DIRECTION('',(-0.707106781187,0.707106781187,0.));
#762 = ADVANCED_FACE('',(#763),#766,.F.);
#763 = FACE_BOUND('',#764,.F.);
#764 = EDGE_LOOP('',(#765));
#765 = ORIENTED_EDGE('',*,*,#347,.T.);
#766 = PLANE('',#767);
#767 = AXIS2_PLACEMENT_3D('',#768,#769,#770);
#768 = CARTESIAN_POINT('',(96.364507392532,-108.7768553103,1.013));
#769 = DIRECTION('',(0.,0.,1.));
#770 = DIRECTION('',(-0.923879532511,0.382683432365,0.));
#771 = ADVANCED_FACE('',(#772),#775,.F.);
#772 = FACE_BOUND('',#773,.F.);
#773 = EDGE_LOOP('',(#774));
#774 = ORIENTED_EDGE('',*,*,#372,.T.);
#775 = PLANE('',#776);
#776 = AXIS2_PLACEMENT_3D('',#777,#778,#779);
#777 = CARTESIAN_POINT('',(91.223144441143,-103.6354923589,1.013));
#778 = DIRECTION('',(0.,0.,1.));
#779 = DIRECTION('',(-0.382683432365,0.923879532511,0.));
#780 = ADVANCED_FACE('',(#781),#784,.F.);
#781 = FACE_BOUND('',#782,.F.);
#782 = EDGE_LOOP('',(#783));
#783 = ORIENTED_EDGE('',*,*,#397,.T.);
#784 = PLANE('',#785);
#785 = AXIS2_PLACEMENT_3D('',#786,#787,#788);
#786 = CARTESIAN_POINT('',(90.5,-99.99999975144,1.013));
#787 = DIRECTION('',(0.,0.,1.));
#788 = DIRECTION('',(0.,1.,0.));
#789 = ADVANCED_FACE('',(#790),#793,.F.);
#790 = FACE_BOUND('',#791,.F.);
#791 = EDGE_LOOP('',(#792));
#792 = ORIENTED_EDGE('',*,*,#422,.T.);
#793 = PLANE('',#794);
#794 = AXIS2_PLACEMENT_3D('',#795,#796,#797);
#795 = CARTESIAN_POINT('',(100.,-109.4999997514,1.013));
#796 = DIRECTION('',(0.,0.,1.));
#797 = DIRECTION('',(-1.,0.,0.));
#798 = ADVANCED_FACE('',(#799),#802,.F.);
#799 = FACE_BOUND('',#800,.F.);
#800 = EDGE_LOOP('',(#801));
#801 = ORIENTED_EDGE('',*,*,#447,.T.);
#802 = PLANE('',#803);
#803 = AXIS2_PLACEMENT_3D('',#804,#805,#806);
#804 = CARTESIAN_POINT('',(103.63549260746,-108.7768553103,1.013));
#805 = DIRECTION('',(0.,0.,1.));
#806 = DIRECTION('',(-0.923879532511,-0.382683432365,0.));
#807 = ADVANCED_FACE('',(#808),#811,.F.);
#808 = FACE_BOUND('',#809,.F.);
#809 = EDGE_LOOP('',(#810));
#810 = ORIENTED_EDGE('',*,*,#472,.T.);
#811 = PLANE('',#812);
#812 = AXIS2_PLACEMENT_3D('',#813,#814,#815);
#813 = CARTESIAN_POINT('',(106.71751442127,-106.7175141727,1.013));
#814 = DIRECTION('',(0.,0.,1.));
#815 = DIRECTION('',(-0.707106781187,-0.707106781187,0.));
#816 = ADVANCED_FACE('',(#817),#820,.F.);
#817 = FACE_BOUND('',#818,.F.);
#818 = EDGE_LOOP('',(#819));
#819 = ORIENTED_EDGE('',*,*,#522,.T.);
#820 = PLANE('',#821);
#821 = AXIS2_PLACEMENT_3D('',#822,#823,#824);
#822 = CARTESIAN_POINT('',(108.77685555885,-103.6354923589,1.013));
#823 = DIRECTION('',(0.,0.,1.));
#824 = DIRECTION('',(-0.382683432365,-0.923879532511,0.));
#825 = ADVANCED_FACE('',(#826),#829,.F.);
#826 = FACE_BOUND('',#827,.F.);
#827 = EDGE_LOOP('',(#828));
#828 = ORIENTED_EDGE('',*,*,#547,.T.);
#829 = PLANE('',#830);
#830 = AXIS2_PLACEMENT_3D('',#831,#832,#833);
#831 = CARTESIAN_POINT('',(109.5,-99.99999975144,1.013));
#832 = DIRECTION('',(0.,0.,1.));
#833 = DIRECTION('',(0.,-1.,0.));
#834 = ADVANCED_FACE('',(#835),#838,.F.);
#835 = FACE_BOUND('',#836,.F.);
#836 = EDGE_LOOP('',(#837));
#837 = ORIENTED_EDGE('',*,*,#572,.T.);
#838 = PLANE('',#839);
#839 = AXIS2_PLACEMENT_3D('',#840,#841,#842);
#840 = CARTESIAN_POINT('',(91.223144441143,-96.36450714397,1.013));
#841 = DIRECTION('',(0.,0.,1.));
#842 = DIRECTION('',(0.382683432365,0.923879532511,0.));
#843 = ADVANCED_FACE('',(#844),#847,.F.);
#844 = FACE_BOUND('',#845,.F.);
#845 = EDGE_LOOP('',(#846));
#846 = ORIENTED_EDGE('',*,*,#597,.T.);
#847 = PLANE('',#848);
#848 = AXIS2_PLACEMENT_3D('',#849,#850,#851);
#849 = CARTESIAN_POINT('',(93.282485578728,-93.28248533017,1.013));
#850 = DIRECTION('',(0.,0.,1.));
#851 = DIRECTION('',(0.707106781187,0.707106781187,0.));
#852 = ADVANCED_FACE('',(#853),#856,.F.);
#853 = FACE_BOUND('',#854,.F.);
#854 = EDGE_LOOP('',(#855));
#855 = ORIENTED_EDGE('',*,*,#622,.T.);
#856 = PLANE('',#857);
#857 = AXIS2_PLACEMENT_3D('',#858,#859,#860);
#858 = CARTESIAN_POINT('',(96.364507392532,-91.22314419259,1.013));
#859 = DIRECTION('',(0.,0.,1.));
#860 = DIRECTION('',(0.923879532511,0.382683432365,0.));
#861 = ADVANCED_FACE('',(#862),#865,.F.);
#862 = FACE_BOUND('',#863,.F.);
#863 = EDGE_LOOP('',(#864));
#864 = ORIENTED_EDGE('',*,*,#647,.T.);
#865 = PLANE('',#866);
#866 = AXIS2_PLACEMENT_3D('',#867,#868,#869);
#867 = CARTESIAN_POINT('',(108.77685555885,-96.36450714397,1.013));
#868 = DIRECTION('',(0.,0.,1.));
#869 = DIRECTION('',(0.382683432365,-0.923879532511,0.));
#870 = ADVANCED_FACE('',(#871),#874,.F.);
#871 = FACE_BOUND('',#872,.F.);
#872 = EDGE_LOOP('',(#873));
#873 = ORIENTED_EDGE('',*,*,#672,.T.);
#874 = PLANE('',#875);
#875 = AXIS2_PLACEMENT_3D('',#876,#877,#878);
#876 = CARTESIAN_POINT('',(100.,-90.49999975144,1.013));
#877 = DIRECTION('',(0.,0.,1.));
#878 = DIRECTION('',(1.,0.,0.));
#879 = ADVANCED_FACE('',(#880),#883,.F.);
#880 = FACE_BOUND('',#881,.F.);
#881 = EDGE_LOOP('',(#882));
#882 = ORIENTED_EDGE('',*,*,#697,.T.);
#883 = PLANE('',#884);
#884 = AXIS2_PLACEMENT_3D('',#885,#886,#887);
#885 = CARTESIAN_POINT('',(103.63549260746,-91.22314419259,1.013));
#886 = DIRECTION('',(0.,0.,1.));
#887 = DIRECTION('',(0.923879532511,-0.382683432365,0.));
#888 = ADVANCED_FACE('',(#889),#892,.F.);
#889 = FACE_BOUND('',#890,.F.);
#890 = EDGE_LOOP('',(#891));
#891 = ORIENTED_EDGE('',*,*,#722,.T.);
#892 = PLANE('',#893);
#893 = AXIS2_PLACEMENT_3D('',#894,#895,#896);
#894 = CARTESIAN_POINT('',(106.71751442127,-93.28248533017,1.013));
#895 = DIRECTION('',(0.,0.,1.));
#896 = DIRECTION('',(0.707106781187,-0.707106781187,0.));
#897 = ( GEOMETRIC_REPRESENTATION_CONTEXT(3) 
GLOBAL_UNCERTAINTY_ASSIGNED_CONTEXT((#901)) GLOBAL_UNIT_ASSIGNED_CONTEXT
((#898,#899,#900)) REPRESENTATION_CONTEXT('Context #1',
  '3D Context with UNIT and UNCERTAINTY') );
#898 = ( LENGTH_UNIT() NAMED_UNIT(*) SI_UNIT(.MILLI.,.METRE.) );
#899 = ( NAMED_UNIT(*) PLANE_ANGLE_UNIT() SI_UNIT($,.RADIAN.) );
#900 = ( NAMED_UNIT(*) SI_UNIT($,.STERADIAN.) SOLID_ANGLE_UNIT() );
#901 = UNCERTAINTY_MEASURE_WITH_UNIT(LENGTH_MEASURE(1.E-07),#898,
  'distance_accuracy_value','confusion accuracy');
#902 = CONTEXT_DEPENDENT_SHAPE_REPRESENTATION(#903,#905);
#903 = ( REPRESENTATION_RELATIONSHIP('','',#32,#10) 
REPRESENTATION_RELATIONSHIP_WITH_TRANSFORMATION(#904) 
SHAPE_REPRESENTATION_RELATIONSHIP() );
#904 = ITEM_DEFINED_TRANSFORMATION('','',#11,#15);
#905 = PRODUCT_DEFINITION_SHAPE('Placement','Placement of an item',#906
  );
#906 = NEXT_ASSEMBLY_USAGE_OCCURRENCE('1','Body001','',#5,#27,$);
#907 = PRODUCT_RELATED_PRODUCT_CATEGORY('part',$,(#29));
#908 = MECHANICAL_DESIGN_GEOMETRIC_PRESENTATION_REPRESENTATION('',(#909)
  ,#897);
#909 = STYLED_ITEM('color',(#910),#33);
#910 = PRESENTATION_STYLE_ASSIGNMENT((#911,#917));
#911 = SURFACE_STYLE_USAGE(.BOTH.,#912);
#912 = SURFACE_SIDE_STYLE('',(#913));
#913 = SURFACE_STYLE_FILL_AREA(#914);
#914 = FILL_AREA_STYLE('',(#915));
#915 = FILL_AREA_STYLE_COLOUR('',#916);
#916 = COLOUR_RGB('',0.47058824112,0.341176475329,0.490196077941);
#917 = CURVE_STYLE('',#918,POSITIVE_LENGTH_MEASURE(0.1),#919);
#918 = DRAUGHTING_PRE_DEFINED_CURVE_FONT('continuous');
#919 = COLOUR_RGB('',9.803921802644E-02,9.803921802644E-02,
  9.803921802644E-02);
ENDSEC;
END-ISO-10303-21;
