ISO-10303-21;
HEADER;
FILE_DESCRIPTION(('FreeCAD Model'),'2;1');
FILE_NAME('Open CASCADE Shape Model','2026-02-04T13:00:29',('Author'),(
    ''),'Open CASCADE STEP processor 7.8','FreeCAD','Unknown');
FILE_SCHEMA(('AUTOMOTIVE_DESIGN { 1 0 10303 214 1 1 1 1 }'));
ENDSEC;
DATA;
#1 = APPLICATION_PROTOCOL_DEFINITION('international standard',
  'automotive_design',2000,#2);
#2 = APPLICATION_CONTEXT(
  'core data for automotive mechanical design processes');
#3 = SHAPE_DEFINITION_REPRESENTATION(#4,#10);
#4 = PRODUCT_DEFINITION_SHAPE('','',#5);
#5 = PRODUCT_DEFINITION('design','',#6,#9);
#6 = PRODUCT_DEFINITION_FORMATION('','',#7);
#7 = PRODUCT('J7_PinHeader_2x01_P200mm_Vertical_c010affdaef2',
  'J7_PinHeader_2x01_P200mm_Vertical_c010affdaef2','',(#8));
#8 = PRODUCT_CONTEXT('',#2,'mechanical');
#9 = PRODUCT_DEFINITION_CONTEXT('part definition',#2,'design');
#10 = ADVANCED_BREP_SHAPE_REPRESENTATION('',(#11,#15),#1249);
#11 = AXIS2_PLACEMENT_3D('',#12,#13,#14);
#12 = CARTESIAN_POINT('',(0.,0.,0.));
#13 = DIRECTION('',(0.,0.,1.));
#14 = DIRECTION('',(1.,0.,-0.));
#15 = MANIFOLD_SOLID_BREP('',#16);
#16 = CLOSED_SHELL('',(#17,#57,#88,#119,#236,#353,#370,#387,#404,#421,
    #433,#464,#488,#512,#529,#560,#584,#608,#625,#656,#680,#704,#721,
    #752,#776,#800,#817,#848,#872,#896,#913,#944,#968,#992,#1009,#1040,
    #1064,#1088,#1105,#1136,#1160,#1184,#1201,#1213,#1225,#1237));
#17 = ADVANCED_FACE('',(#18),#52,.F.);
#18 = FACE_BOUND('',#19,.F.);
#19 = EDGE_LOOP('',(#20,#30,#38,#46));
#20 = ORIENTED_EDGE('',*,*,#21,.T.);
#21 = EDGE_CURVE('',#22,#24,#26,.T.);
#22 = VERTEX_POINT('',#23);
#23 = CARTESIAN_POINT('',(97.1,-107.1,-1.6));
#24 = VERTEX_POINT('',#25);
#25 = CARTESIAN_POINT('',(97.1,-107.1,-3.6));
#26 = LINE('',#27,#28);
#27 = CARTESIAN_POINT('',(97.1,-107.1,-1.6));
#28 = VECTOR('',#29,1.);
#29 = DIRECTION('',(-8.659560562355E-17,-8.659560562355E-17,-1.));
#30 = ORIENTED_EDGE('',*,*,#31,.T.);
#31 = EDGE_CURVE('',#24,#32,#34,.T.);
#32 = VERTEX_POINT('',#33);
#33 = CARTESIAN_POINT('',(97.3,-106.9,-3.6));
#34 = LINE('',#35,#36);
#35 = CARTESIAN_POINT('',(97.1,-107.1,-3.6));
#36 = VECTOR('',#37,1.);
#37 = DIRECTION('',(0.707106781187,0.707106781187,-1.224646799147E-16));
#38 = ORIENTED_EDGE('',*,*,#39,.F.);
#39 = EDGE_CURVE('',#40,#32,#42,.T.);
#40 = VERTEX_POINT('',#41);
#41 = CARTESIAN_POINT('',(97.3,-106.9,-1.6));
#42 = LINE('',#43,#44);
#43 = CARTESIAN_POINT('',(97.3,-106.9,-1.6));
#44 = VECTOR('',#45,1.);
#45 = DIRECTION('',(-8.659560562355E-17,-8.659560562355E-17,-1.));
#46 = ORIENTED_EDGE('',*,*,#47,.F.);
#47 = EDGE_CURVE('',#22,#40,#48,.T.);
#48 = LINE('',#49,#50);
#49 = CARTESIAN_POINT('',(97.1,-107.1,-1.6));
#50 = VECTOR('',#51,1.);
#51 = DIRECTION('',(0.707106781187,0.707106781187,-1.224646799147E-16));
#52 = PLANE('',#53);
#53 = AXIS2_PLACEMENT_3D('',#54,#55,#56);
#54 = CARTESIAN_POINT('',(97.1,-107.1,-1.6));
#55 = DIRECTION('',(0.707106781187,-0.707106781187,-1.232595164408E-32)
  );
#56 = DIRECTION('',(0.707106781187,0.707106781187,-1.224646799147E-16));
#57 = ADVANCED_FACE('',(#58),#83,.F.);
#58 = FACE_BOUND('',#59,.F.);
#59 = EDGE_LOOP('',(#60,#70,#76,#77));
#60 = ORIENTED_EDGE('',*,*,#61,.T.);
#61 = EDGE_CURVE('',#62,#64,#66,.T.);
#62 = VERTEX_POINT('',#63);
#63 = CARTESIAN_POINT('',(97.1,-110.7,-1.6));
#64 = VERTEX_POINT('',#65);
#65 = CARTESIAN_POINT('',(97.1,-110.7,-3.6));
#66 = LINE('',#67,#68);
#67 = CARTESIAN_POINT('',(97.1,-110.7,-1.6));
#68 = VECTOR('',#69,1.);
#69 = DIRECTION('',(-8.659560562355E-17,-8.659560562355E-17,-1.));
#70 = ORIENTED_EDGE('',*,*,#71,.T.);
#71 = EDGE_CURVE('',#64,#24,#72,.T.);
#72 = LINE('',#73,#74);
#73 = CARTESIAN_POINT('',(97.1,-110.7,-3.6));
#74 = VECTOR('',#75,1.);
#75 = DIRECTION('',(-2.22044604925E-16,1.,-8.659560562355E-17));
#76 = ORIENTED_EDGE('',*,*,#21,.F.);
#77 = ORIENTED_EDGE('',*,*,#78,.F.);
#78 = EDGE_CURVE('',#62,#22,#79,.T.);
#79 = LINE('',#80,#81);
#80 = CARTESIAN_POINT('',(97.1,-110.7,-1.6));
#81 = VECTOR('',#82,1.);
#82 = DIRECTION('',(-2.22044604925E-16,1.,-8.659560562355E-17));
#83 = PLANE('',#84);
#84 = AXIS2_PLACEMENT_3D('',#85,#86,#87);
#85 = CARTESIAN_POINT('',(97.1,-110.7,-1.6));
#86 = DIRECTION('',(1.,2.22044604925E-16,-8.659560562355E-17));
#87 = DIRECTION('',(-2.22044604925E-16,1.,-8.659560562355E-17));
#88 = ADVANCED_FACE('',(#89),#114,.F.);
#89 = FACE_BOUND('',#90,.F.);
#90 = EDGE_LOOP('',(#91,#92,#100,#108));
#91 = ORIENTED_EDGE('',*,*,#39,.T.);
#92 = ORIENTED_EDGE('',*,*,#93,.T.);
#93 = EDGE_CURVE('',#32,#94,#96,.T.);
#94 = VERTEX_POINT('',#95);
#95 = CARTESIAN_POINT('',(98.9,-106.9,-3.6));
#96 = LINE('',#97,#98);
#97 = CARTESIAN_POINT('',(97.3,-106.9,-3.6));
#98 = VECTOR('',#99,1.);
#99 = DIRECTION('',(1.,2.22044604925E-16,-8.659560562355E-17));
#100 = ORIENTED_EDGE('',*,*,#101,.F.);
#101 = EDGE_CURVE('',#102,#94,#104,.T.);
#102 = VERTEX_POINT('',#103);
#103 = CARTESIAN_POINT('',(98.9,-106.9,-1.6));
#104 = LINE('',#105,#106);
#105 = CARTESIAN_POINT('',(98.9,-106.9,-1.6));
#106 = VECTOR('',#107,1.);
#107 = DIRECTION('',(-8.659560562355E-17,-8.659560562355E-17,-1.));
#108 = ORIENTED_EDGE('',*,*,#109,.F.);
#109 = EDGE_CURVE('',#40,#102,#110,.T.);
#110 = LINE('',#111,#112);
#111 = CARTESIAN_POINT('',(97.3,-106.9,-1.6));
#112 = VECTOR('',#113,1.);
#113 = DIRECTION('',(1.,2.22044604925E-16,-8.659560562355E-17));
#114 = PLANE('',#115);
#115 = AXIS2_PLACEMENT_3D('',#116,#117,#118);
#116 = CARTESIAN_POINT('',(97.3,-106.9,-1.6));
#117 = DIRECTION('',(2.22044604925E-16,-1.,8.659560562355E-17));
#118 = DIRECTION('',(1.,2.22044604925E-16,-8.659560562355E-17));
#119 = ADVANCED_FACE('',(#120,#163,#197),#231,.F.);
#120 = FACE_BOUND('',#121,.F.);
#121 = EDGE_LOOP('',(#122,#123,#124,#132,#140,#148,#156,#162));
#122 = ORIENTED_EDGE('',*,*,#47,.T.);
#123 = ORIENTED_EDGE('',*,*,#109,.T.);
#124 = ORIENTED_EDGE('',*,*,#125,.T.);
#125 = EDGE_CURVE('',#102,#126,#128,.T.);
#126 = VERTEX_POINT('',#127);
#127 = CARTESIAN_POINT('',(99.1,-107.1,-1.6));
#128 = LINE('',#129,#130);
#129 = CARTESIAN_POINT('',(98.9,-106.9,-1.6));
#130 = VECTOR('',#131,1.);
#131 = DIRECTION('',(0.707106781187,-0.707106781187,-1.232595164408E-32)
  );
#132 = ORIENTED_EDGE('',*,*,#133,.T.);
#133 = EDGE_CURVE('',#126,#134,#136,.T.);
#134 = VERTEX_POINT('',#135);
#135 = CARTESIAN_POINT('',(99.1,-110.7,-1.6));
#136 = LINE('',#137,#138);
#137 = CARTESIAN_POINT('',(99.1,-107.1,-1.6));
#138 = VECTOR('',#139,1.);
#139 = DIRECTION('',(2.22044604925E-16,-1.,8.659560562355E-17));
#140 = ORIENTED_EDGE('',*,*,#141,.T.);
#141 = EDGE_CURVE('',#134,#142,#144,.T.);
#142 = VERTEX_POINT('',#143);
#143 = CARTESIAN_POINT('',(98.9,-110.9,-1.6));
#144 = LINE('',#145,#146);
#145 = CARTESIAN_POINT('',(99.1,-110.7,-1.6));
#146 = VECTOR('',#147,1.);
#147 = DIRECTION('',(-0.707106781187,-0.707106781187,1.224646799147E-16)
  );
#148 = ORIENTED_EDGE('',*,*,#149,.T.);
#149 = EDGE_CURVE('',#142,#150,#152,.T.);
#150 = VERTEX_POINT('',#151);
#151 = CARTESIAN_POINT('',(97.3,-110.9,-1.6));
#152 = LINE('',#153,#154);
#153 = CARTESIAN_POINT('',(98.9,-110.9,-1.6));
#154 = VECTOR('',#155,1.);
#155 = DIRECTION('',(-1.,-2.22044604925E-16,8.659560562355E-17));
#156 = ORIENTED_EDGE('',*,*,#157,.T.);
#157 = EDGE_CURVE('',#150,#62,#158,.T.);
#158 = LINE('',#159,#160);
#159 = CARTESIAN_POINT('',(97.3,-110.9,-1.6));
#160 = VECTOR('',#161,1.);
#161 = DIRECTION('',(-0.707106781187,0.707106781187,1.232595164408E-32)
  );
#162 = ORIENTED_EDGE('',*,*,#78,.T.);
#163 = FACE_BOUND('',#164,.F.);
#164 = EDGE_LOOP('',(#165,#175,#183,#191));
#165 = ORIENTED_EDGE('',*,*,#166,.F.);
#166 = EDGE_CURVE('',#167,#169,#171,.T.);
#167 = VERTEX_POINT('',#168);
#168 = CARTESIAN_POINT('',(97.85,-108.15,-1.6));
#169 = VERTEX_POINT('',#170);
#170 = CARTESIAN_POINT('',(97.85,-107.65,-1.6));
#171 = LINE('',#172,#173);
#172 = CARTESIAN_POINT('',(97.85,-108.275,-1.6));
#173 = VECTOR('',#174,1.);
#174 = DIRECTION('',(-2.22044604925E-16,1.,-8.659560562355E-17));
#175 = ORIENTED_EDGE('',*,*,#176,.F.);
#176 = EDGE_CURVE('',#177,#167,#179,.T.);
#177 = VERTEX_POINT('',#178);
#178 = CARTESIAN_POINT('',(98.35,-108.15,-1.6));
#179 = LINE('',#180,#181);
#180 = CARTESIAN_POINT('',(98.225,-108.15,-1.6));
#181 = VECTOR('',#182,1.);
#182 = DIRECTION('',(-1.,-2.22044604925E-16,8.659560562355E-17));
#183 = ORIENTED_EDGE('',*,*,#184,.T.);
#184 = EDGE_CURVE('',#177,#185,#187,.T.);
#185 = VERTEX_POINT('',#186);
#186 = CARTESIAN_POINT('',(98.35,-107.65,-1.6));
#187 = LINE('',#188,#189);
#188 = CARTESIAN_POINT('',(98.35,-108.275,-1.6));
#189 = VECTOR('',#190,1.);
#190 = DIRECTION('',(-2.22044604925E-16,1.,-8.659560562355E-17));
#191 = ORIENTED_EDGE('',*,*,#192,.T.);
#192 = EDGE_CURVE('',#185,#169,#193,.T.);
#193 = LINE('',#194,#195);
#194 = CARTESIAN_POINT('',(98.225,-107.65,-1.6));
#195 = VECTOR('',#196,1.);
#196 = DIRECTION('',(-1.,-2.22044604925E-16,8.659560562355E-17));
#197 = FACE_BOUND('',#198,.F.);
#198 = EDGE_LOOP('',(#199,#209,#217,#225));
#199 = ORIENTED_EDGE('',*,*,#200,.T.);
#200 = EDGE_CURVE('',#201,#203,#205,.T.);
#201 = VERTEX_POINT('',#202);
#202 = CARTESIAN_POINT('',(98.35,-110.15,-1.6));
#203 = VERTEX_POINT('',#204);
#204 = CARTESIAN_POINT('',(98.35,-109.65,-1.6));
#205 = LINE('',#206,#207);
#206 = CARTESIAN_POINT('',(98.35,-109.275,-1.6));
#207 = VECTOR('',#208,1.);
#208 = DIRECTION('',(-2.22044604925E-16,1.,-8.659560562355E-17));
#209 = ORIENTED_EDGE('',*,*,#210,.T.);
#210 = EDGE_CURVE('',#203,#211,#213,.T.);
#211 = VERTEX_POINT('',#212);
#212 = CARTESIAN_POINT('',(97.85,-109.65,-1.6));
#213 = LINE('',#214,#215);
#214 = CARTESIAN_POINT('',(98.225,-109.65,-1.6));
#215 = VECTOR('',#216,1.);
#216 = DIRECTION('',(-1.,-2.22044604925E-16,8.659560562355E-17));
#217 = ORIENTED_EDGE('',*,*,#218,.F.);
#218 = EDGE_CURVE('',#219,#211,#221,.T.);
#219 = VERTEX_POINT('',#220);
#220 = CARTESIAN_POINT('',(97.85,-110.15,-1.6));
#221 = LINE('',#222,#223);
#222 = CARTESIAN_POINT('',(97.85,-109.275,-1.6));
#223 = VECTOR('',#224,1.);
#224 = DIRECTION('',(-2.22044604925E-16,1.,-8.659560562355E-17));
#225 = ORIENTED_EDGE('',*,*,#226,.F.);
#226 = EDGE_CURVE('',#201,#219,#227,.T.);
#227 = LINE('',#228,#229);
#228 = CARTESIAN_POINT('',(98.225,-110.15,-1.6));
#229 = VECTOR('',#230,1.);
#230 = DIRECTION('',(-1.,-2.22044604925E-16,8.659560562355E-17));
#231 = PLANE('',#232);
#232 = AXIS2_PLACEMENT_3D('',#233,#234,#235);
#233 = CARTESIAN_POINT('',(98.1,-108.9,-1.6));
#234 = DIRECTION('',(-8.659560562355E-17,-8.659560562355E-17,-1.));
#235 = DIRECTION('',(2.22044604925E-16,-1.,8.659560562355E-17));
#236 = ADVANCED_FACE('',(#237,#280,#314),#348,.T.);
#237 = FACE_BOUND('',#238,.T.);
#238 = EDGE_LOOP('',(#239,#240,#241,#249,#257,#265,#273,#279));
#239 = ORIENTED_EDGE('',*,*,#31,.T.);
#240 = ORIENTED_EDGE('',*,*,#93,.T.);
#241 = ORIENTED_EDGE('',*,*,#242,.T.);
#242 = EDGE_CURVE('',#94,#243,#245,.T.);
#243 = VERTEX_POINT('',#244);
#244 = CARTESIAN_POINT('',(99.1,-107.1,-3.6));
#245 = LINE('',#246,#247);
#246 = CARTESIAN_POINT('',(98.9,-106.9,-3.6));
#247 = VECTOR('',#248,1.);
#248 = DIRECTION('',(0.707106781187,-0.707106781187,-1.232595164408E-32)
  );
#249 = ORIENTED_EDGE('',*,*,#250,.T.);
#250 = EDGE_CURVE('',#243,#251,#253,.T.);
#251 = VERTEX_POINT('',#252);
#252 = CARTESIAN_POINT('',(99.1,-110.7,-3.6));
#253 = LINE('',#254,#255);
#254 = CARTESIAN_POINT('',(99.1,-107.1,-3.6));
#255 = VECTOR('',#256,1.);
#256 = DIRECTION('',(2.22044604925E-16,-1.,8.659560562355E-17));
#257 = ORIENTED_EDGE('',*,*,#258,.T.);
#258 = EDGE_CURVE('',#251,#259,#261,.T.);
#259 = VERTEX_POINT('',#260);
#260 = CARTESIAN_POINT('',(98.9,-110.9,-3.6));
#261 = LINE('',#262,#263);
#262 = CARTESIAN_POINT('',(99.1,-110.7,-3.6));
#263 = VECTOR('',#264,1.);
#264 = DIRECTION('',(-0.707106781187,-0.707106781187,1.224646799147E-16)
  );
#265 = ORIENTED_EDGE('',*,*,#266,.T.);
#266 = EDGE_CURVE('',#259,#267,#269,.T.);
#267 = VERTEX_POINT('',#268);
#268 = CARTESIAN_POINT('',(97.3,-110.9,-3.6));
#269 = LINE('',#270,#271);
#270 = CARTESIAN_POINT('',(98.9,-110.9,-3.6));
#271 = VECTOR('',#272,1.);
#272 = DIRECTION('',(-1.,-2.22044604925E-16,8.659560562355E-17));
#273 = ORIENTED_EDGE('',*,*,#274,.T.);
#274 = EDGE_CURVE('',#267,#64,#275,.T.);
#275 = LINE('',#276,#277);
#276 = CARTESIAN_POINT('',(97.3,-110.9,-3.6));
#277 = VECTOR('',#278,1.);
#278 = DIRECTION('',(-0.707106781187,0.707106781187,1.232595164408E-32)
  );
#279 = ORIENTED_EDGE('',*,*,#71,.T.);
#280 = FACE_BOUND('',#281,.T.);
#281 = EDGE_LOOP('',(#282,#292,#300,#308));
#282 = ORIENTED_EDGE('',*,*,#283,.F.);
#283 = EDGE_CURVE('',#284,#286,#288,.T.);
#284 = VERTEX_POINT('',#285);
#285 = CARTESIAN_POINT('',(97.85,-108.15,-3.6));
#286 = VERTEX_POINT('',#287);
#287 = CARTESIAN_POINT('',(97.85,-107.65,-3.6));
#288 = LINE('',#289,#290);
#289 = CARTESIAN_POINT('',(97.85,-108.275,-3.6));
#290 = VECTOR('',#291,1.);
#291 = DIRECTION('',(-2.22044604925E-16,1.,-8.659560562355E-17));
#292 = ORIENTED_EDGE('',*,*,#293,.F.);
#293 = EDGE_CURVE('',#294,#284,#296,.T.);
#294 = VERTEX_POINT('',#295);
#295 = CARTESIAN_POINT('',(98.35,-108.15,-3.6));
#296 = LINE('',#297,#298);
#297 = CARTESIAN_POINT('',(98.225,-108.15,-3.6));
#298 = VECTOR('',#299,1.);
#299 = DIRECTION('',(-1.,-2.22044604925E-16,8.659560562355E-17));
#300 = ORIENTED_EDGE('',*,*,#301,.T.);
#301 = EDGE_CURVE('',#294,#302,#304,.T.);
#302 = VERTEX_POINT('',#303);
#303 = CARTESIAN_POINT('',(98.35,-107.65,-3.6));
#304 = LINE('',#305,#306);
#305 = CARTESIAN_POINT('',(98.35,-108.275,-3.6));
#306 = VECTOR('',#307,1.);
#307 = DIRECTION('',(-2.22044604925E-16,1.,-8.659560562355E-17));
#308 = ORIENTED_EDGE('',*,*,#309,.T.);
#309 = EDGE_CURVE('',#302,#286,#310,.T.);
#310 = LINE('',#311,#312);
#311 = CARTESIAN_POINT('',(98.225,-107.65,-3.6));
#312 = VECTOR('',#313,1.);
#313 = DIRECTION('',(-1.,-2.22044604925E-16,8.659560562355E-17));
#314 = FACE_BOUND('',#315,.T.);
#315 = EDGE_LOOP('',(#316,#326,#334,#342));
#316 = ORIENTED_EDGE('',*,*,#317,.T.);
#317 = EDGE_CURVE('',#318,#320,#322,.T.);
#318 = VERTEX_POINT('',#319);
#319 = CARTESIAN_POINT('',(98.35,-110.15,-3.6));
#320 = VERTEX_POINT('',#321);
#321 = CARTESIAN_POINT('',(98.35,-109.65,-3.6));
#322 = LINE('',#323,#324);
#323 = CARTESIAN_POINT('',(98.35,-109.275,-3.6));
#324 = VECTOR('',#325,1.);
#325 = DIRECTION('',(-2.22044604925E-16,1.,-8.659560562355E-17));
#326 = ORIENTED_EDGE('',*,*,#327,.T.);
#327 = EDGE_CURVE('',#320,#328,#330,.T.);
#328 = VERTEX_POINT('',#329);
#329 = CARTESIAN_POINT('',(97.85,-109.65,-3.6));
#330 = LINE('',#331,#332);
#331 = CARTESIAN_POINT('',(98.225,-109.65,-3.6));
#332 = VECTOR('',#333,1.);
#333 = DIRECTION('',(-1.,-2.22044604925E-16,8.659560562355E-17));
#334 = ORIENTED_EDGE('',*,*,#335,.F.);
#335 = EDGE_CURVE('',#336,#328,#338,.T.);
#336 = VERTEX_POINT('',#337);
#337 = CARTESIAN_POINT('',(97.85,-110.15,-3.6));
#338 = LINE('',#339,#340);
#339 = CARTESIAN_POINT('',(97.85,-109.275,-3.6));
#340 = VECTOR('',#341,1.);
#341 = DIRECTION('',(-2.22044604925E-16,1.,-8.659560562355E-17));
#342 = ORIENTED_EDGE('',*,*,#343,.F.);
#343 = EDGE_CURVE('',#318,#336,#344,.T.);
#344 = LINE('',#345,#346);
#345 = CARTESIAN_POINT('',(98.225,-110.15,-3.6));
#346 = VECTOR('',#347,1.);
#347 = DIRECTION('',(-1.,-2.22044604925E-16,8.659560562355E-17));
#348 = PLANE('',#349);
#349 = AXIS2_PLACEMENT_3D('',#350,#351,#352);
#350 = CARTESIAN_POINT('',(98.1,-108.9,-3.6));
#351 = DIRECTION('',(-8.659560562355E-17,-8.659560562355E-17,-1.));
#352 = DIRECTION('',(2.22044604925E-16,-1.,8.659560562355E-17));
#353 = ADVANCED_FACE('',(#354),#365,.F.);
#354 = FACE_BOUND('',#355,.F.);
#355 = EDGE_LOOP('',(#356,#362,#363,#364));
#356 = ORIENTED_EDGE('',*,*,#357,.T.);
#357 = EDGE_CURVE('',#150,#267,#358,.T.);
#358 = LINE('',#359,#360);
#359 = CARTESIAN_POINT('',(97.3,-110.9,-1.6));
#360 = VECTOR('',#361,1.);
#361 = DIRECTION('',(-8.659560562355E-17,-8.659560562355E-17,-1.));
#362 = ORIENTED_EDGE('',*,*,#274,.T.);
#363 = ORIENTED_EDGE('',*,*,#61,.F.);
#364 = ORIENTED_EDGE('',*,*,#157,.F.);
#365 = PLANE('',#366);
#366 = AXIS2_PLACEMENT_3D('',#367,#368,#369);
#367 = CARTESIAN_POINT('',(97.3,-110.9,-1.6));
#368 = DIRECTION('',(0.707106781187,0.707106781187,-1.224646799147E-16)
  );
#369 = DIRECTION('',(-0.707106781187,0.707106781187,1.232595164408E-32)
  );
#370 = ADVANCED_FACE('',(#371),#382,.F.);
#371 = FACE_BOUND('',#372,.F.);
#372 = EDGE_LOOP('',(#373,#374,#375,#381));
#373 = ORIENTED_EDGE('',*,*,#101,.T.);
#374 = ORIENTED_EDGE('',*,*,#242,.T.);
#375 = ORIENTED_EDGE('',*,*,#376,.F.);
#376 = EDGE_CURVE('',#126,#243,#377,.T.);
#377 = LINE('',#378,#379);
#378 = CARTESIAN_POINT('',(99.1,-107.1,-1.6));
#379 = VECTOR('',#380,1.);
#380 = DIRECTION('',(-8.659560562355E-17,-8.659560562355E-17,-1.));
#381 = ORIENTED_EDGE('',*,*,#125,.F.);
#382 = PLANE('',#383);
#383 = AXIS2_PLACEMENT_3D('',#384,#385,#386);
#384 = CARTESIAN_POINT('',(98.9,-106.9,-1.6));
#385 = DIRECTION('',(-0.707106781187,-0.707106781187,1.224646799147E-16)
  );
#386 = DIRECTION('',(0.707106781187,-0.707106781187,-1.232595164408E-32)
  );
#387 = ADVANCED_FACE('',(#388),#399,.F.);
#388 = FACE_BOUND('',#389,.F.);
#389 = EDGE_LOOP('',(#390,#396,#397,#398));
#390 = ORIENTED_EDGE('',*,*,#391,.T.);
#391 = EDGE_CURVE('',#142,#259,#392,.T.);
#392 = LINE('',#393,#394);
#393 = CARTESIAN_POINT('',(98.9,-110.9,-1.6));
#394 = VECTOR('',#395,1.);
#395 = DIRECTION('',(-8.659560562355E-17,-8.659560562355E-17,-1.));
#396 = ORIENTED_EDGE('',*,*,#266,.T.);
#397 = ORIENTED_EDGE('',*,*,#357,.F.);
#398 = ORIENTED_EDGE('',*,*,#149,.F.);
#399 = PLANE('',#400);
#400 = AXIS2_PLACEMENT_3D('',#401,#402,#403);
#401 = CARTESIAN_POINT('',(98.9,-110.9,-1.6));
#402 = DIRECTION('',(-2.22044604925E-16,1.,-8.659560562355E-17));
#403 = DIRECTION('',(-1.,-2.22044604925E-16,8.659560562355E-17));
#404 = ADVANCED_FACE('',(#405),#416,.F.);
#405 = FACE_BOUND('',#406,.F.);
#406 = EDGE_LOOP('',(#407,#408,#409,#415));
#407 = ORIENTED_EDGE('',*,*,#376,.T.);
#408 = ORIENTED_EDGE('',*,*,#250,.T.);
#409 = ORIENTED_EDGE('',*,*,#410,.F.);
#410 = EDGE_CURVE('',#134,#251,#411,.T.);
#411 = LINE('',#412,#413);
#412 = CARTESIAN_POINT('',(99.1,-110.7,-1.6));
#413 = VECTOR('',#414,1.);
#414 = DIRECTION('',(-8.659560562355E-17,-8.659560562355E-17,-1.));
#415 = ORIENTED_EDGE('',*,*,#133,.F.);
#416 = PLANE('',#417);
#417 = AXIS2_PLACEMENT_3D('',#418,#419,#420);
#418 = CARTESIAN_POINT('',(99.1,-107.1,-1.6));
#419 = DIRECTION('',(-1.,-2.22044604925E-16,8.659560562355E-17));
#420 = DIRECTION('',(2.22044604925E-16,-1.,8.659560562355E-17));
#421 = ADVANCED_FACE('',(#422),#428,.F.);
#422 = FACE_BOUND('',#423,.F.);
#423 = EDGE_LOOP('',(#424,#425,#426,#427));
#424 = ORIENTED_EDGE('',*,*,#410,.T.);
#425 = ORIENTED_EDGE('',*,*,#258,.T.);
#426 = ORIENTED_EDGE('',*,*,#391,.F.);
#427 = ORIENTED_EDGE('',*,*,#141,.F.);
#428 = PLANE('',#429);
#429 = AXIS2_PLACEMENT_3D('',#430,#431,#432);
#430 = CARTESIAN_POINT('',(99.1,-110.7,-1.6));
#431 = DIRECTION('',(-0.707106781187,0.707106781187,1.232595164408E-32)
  );
#432 = DIRECTION('',(-0.707106781187,-0.707106781187,1.224646799147E-16)
  );
#433 = ADVANCED_FACE('',(#434),#459,.T.);
#434 = FACE_BOUND('',#435,.T.);
#435 = EDGE_LOOP('',(#436,#444,#452,#458));
#436 = ORIENTED_EDGE('',*,*,#437,.F.);
#437 = EDGE_CURVE('',#438,#167,#440,.T.);
#438 = VERTEX_POINT('',#439);
#439 = CARTESIAN_POINT('',(97.85,-108.15,1.075));
#440 = LINE('',#441,#442);
#441 = CARTESIAN_POINT('',(97.85,-108.15,1.2));
#442 = VECTOR('',#443,1.);
#443 = DIRECTION('',(-8.659560562355E-17,-8.659560562355E-17,-1.));
#444 = ORIENTED_EDGE('',*,*,#445,.F.);
#445 = EDGE_CURVE('',#446,#438,#448,.T.);
#446 = VERTEX_POINT('',#447);
#447 = CARTESIAN_POINT('',(97.85,-107.65,1.075));
#448 = LINE('',#449,#450);
#449 = CARTESIAN_POINT('',(97.85,-107.65,1.075));
#450 = VECTOR('',#451,1.);
#451 = DIRECTION('',(2.22044604925E-16,-1.,8.659560562355E-17));
#452 = ORIENTED_EDGE('',*,*,#453,.T.);
#453 = EDGE_CURVE('',#446,#169,#454,.T.);
#454 = LINE('',#455,#456);
#455 = CARTESIAN_POINT('',(97.85,-107.65,1.2));
#456 = VECTOR('',#457,1.);
#457 = DIRECTION('',(-8.659560562355E-17,-8.659560562355E-17,-1.));
#458 = ORIENTED_EDGE('',*,*,#166,.F.);
#459 = PLANE('',#460);
#460 = AXIS2_PLACEMENT_3D('',#461,#462,#463);
#461 = CARTESIAN_POINT('',(97.85,-107.65,1.2));
#462 = DIRECTION('',(-1.,-2.22044604925E-16,8.659560562355E-17));
#463 = DIRECTION('',(-8.659560562355E-17,-8.659560562355E-17,-1.));
#464 = ADVANCED_FACE('',(#465),#483,.F.);
#465 = FACE_BOUND('',#466,.F.);
#466 = EDGE_LOOP('',(#467,#475,#481,#482));
#467 = ORIENTED_EDGE('',*,*,#468,.F.);
#468 = EDGE_CURVE('',#469,#185,#471,.T.);
#469 = VERTEX_POINT('',#470);
#470 = CARTESIAN_POINT('',(98.35,-107.65,1.075));
#471 = LINE('',#472,#473);
#472 = CARTESIAN_POINT('',(98.35,-107.65,1.2));
#473 = VECTOR('',#474,1.);
#474 = DIRECTION('',(-8.659560562355E-17,-8.659560562355E-17,-1.));
#475 = ORIENTED_EDGE('',*,*,#476,.T.);
#476 = EDGE_CURVE('',#469,#446,#477,.T.);
#477 = LINE('',#478,#479);
#478 = CARTESIAN_POINT('',(98.35,-107.65,1.075));
#479 = VECTOR('',#480,1.);
#480 = DIRECTION('',(-1.,-2.22044604925E-16,8.659560562355E-17));
#481 = ORIENTED_EDGE('',*,*,#453,.T.);
#482 = ORIENTED_EDGE('',*,*,#192,.F.);
#483 = PLANE('',#484);
#484 = AXIS2_PLACEMENT_3D('',#485,#486,#487);
#485 = CARTESIAN_POINT('',(98.35,-107.65,1.2));
#486 = DIRECTION('',(2.22044604925E-16,-1.,8.659560562355E-17));
#487 = DIRECTION('',(-8.659560562355E-17,-8.659560562355E-17,-1.));
#488 = ADVANCED_FACE('',(#489),#507,.F.);
#489 = FACE_BOUND('',#490,.F.);
#490 = EDGE_LOOP('',(#491,#499,#505,#506));
#491 = ORIENTED_EDGE('',*,*,#492,.F.);
#492 = EDGE_CURVE('',#493,#177,#495,.T.);
#493 = VERTEX_POINT('',#494);
#494 = CARTESIAN_POINT('',(98.35,-108.15,1.075));
#495 = LINE('',#496,#497);
#496 = CARTESIAN_POINT('',(98.35,-108.15,1.2));
#497 = VECTOR('',#498,1.);
#498 = DIRECTION('',(-8.659560562355E-17,-8.659560562355E-17,-1.));
#499 = ORIENTED_EDGE('',*,*,#500,.F.);
#500 = EDGE_CURVE('',#469,#493,#501,.T.);
#501 = LINE('',#502,#503);
#502 = CARTESIAN_POINT('',(98.35,-107.65,1.075));
#503 = VECTOR('',#504,1.);
#504 = DIRECTION('',(2.22044604925E-16,-1.,8.659560562355E-17));
#505 = ORIENTED_EDGE('',*,*,#468,.T.);
#506 = ORIENTED_EDGE('',*,*,#184,.F.);
#507 = PLANE('',#508);
#508 = AXIS2_PLACEMENT_3D('',#509,#510,#511);
#509 = CARTESIAN_POINT('',(98.35,-107.65,1.2));
#510 = DIRECTION('',(-1.,-2.22044604925E-16,8.659560562355E-17));
#511 = DIRECTION('',(-8.659560562355E-17,-8.659560562355E-17,-1.));
#512 = ADVANCED_FACE('',(#513),#524,.T.);
#513 = FACE_BOUND('',#514,.T.);
#514 = EDGE_LOOP('',(#515,#516,#522,#523));
#515 = ORIENTED_EDGE('',*,*,#492,.F.);
#516 = ORIENTED_EDGE('',*,*,#517,.T.);
#517 = EDGE_CURVE('',#493,#438,#518,.T.);
#518 = LINE('',#519,#520);
#519 = CARTESIAN_POINT('',(98.35,-108.15,1.075));
#520 = VECTOR('',#521,1.);
#521 = DIRECTION('',(-1.,-2.22044604925E-16,8.659560562355E-17));
#522 = ORIENTED_EDGE('',*,*,#437,.T.);
#523 = ORIENTED_EDGE('',*,*,#176,.F.);
#524 = PLANE('',#525);
#525 = AXIS2_PLACEMENT_3D('',#526,#527,#528);
#526 = CARTESIAN_POINT('',(98.35,-108.15,1.2));
#527 = DIRECTION('',(2.22044604925E-16,-1.,8.659560562355E-17));
#528 = DIRECTION('',(-8.659560562355E-17,-8.659560562355E-17,-1.));
#529 = ADVANCED_FACE('',(#530),#555,.F.);
#530 = FACE_BOUND('',#531,.F.);
#531 = EDGE_LOOP('',(#532,#540,#548,#554));
#532 = ORIENTED_EDGE('',*,*,#533,.F.);
#533 = EDGE_CURVE('',#534,#201,#536,.T.);
#534 = VERTEX_POINT('',#535);
#535 = CARTESIAN_POINT('',(98.35,-110.15,1.075));
#536 = LINE('',#537,#538);
#537 = CARTESIAN_POINT('',(98.35,-110.15,1.2));
#538 = VECTOR('',#539,1.);
#539 = DIRECTION('',(-8.659560562355E-17,-8.659560562355E-17,-1.));
#540 = ORIENTED_EDGE('',*,*,#541,.F.);
#541 = EDGE_CURVE('',#542,#534,#544,.T.);
#542 = VERTEX_POINT('',#543);
#543 = CARTESIAN_POINT('',(98.35,-109.65,1.075));
#544 = LINE('',#545,#546);
#545 = CARTESIAN_POINT('',(98.35,-109.65,1.075));
#546 = VECTOR('',#547,1.);
#547 = DIRECTION('',(2.22044604925E-16,-1.,8.659560562355E-17));
#548 = ORIENTED_EDGE('',*,*,#549,.T.);
#549 = EDGE_CURVE('',#542,#203,#550,.T.);
#550 = LINE('',#551,#552);
#551 = CARTESIAN_POINT('',(98.35,-109.65,1.2));
#552 = VECTOR('',#553,1.);
#553 = DIRECTION('',(-8.659560562355E-17,-8.659560562355E-17,-1.));
#554 = ORIENTED_EDGE('',*,*,#200,.F.);
#555 = PLANE('',#556);
#556 = AXIS2_PLACEMENT_3D('',#557,#558,#559);
#557 = CARTESIAN_POINT('',(98.35,-109.65,1.2));
#558 = DIRECTION('',(-1.,-2.22044604925E-16,8.659560562355E-17));
#559 = DIRECTION('',(-8.659560562355E-17,-8.659560562355E-17,-1.));
#560 = ADVANCED_FACE('',(#561),#579,.T.);
#561 = FACE_BOUND('',#562,.T.);
#562 = EDGE_LOOP('',(#563,#564,#572,#578));
#563 = ORIENTED_EDGE('',*,*,#533,.F.);
#564 = ORIENTED_EDGE('',*,*,#565,.T.);
#565 = EDGE_CURVE('',#534,#566,#568,.T.);
#566 = VERTEX_POINT('',#567);
#567 = CARTESIAN_POINT('',(97.85,-110.15,1.075));
#568 = LINE('',#569,#570);
#569 = CARTESIAN_POINT('',(98.35,-110.15,1.075));
#570 = VECTOR('',#571,1.);
#571 = DIRECTION('',(-1.,-2.22044604925E-16,8.659560562355E-17));
#572 = ORIENTED_EDGE('',*,*,#573,.T.);
#573 = EDGE_CURVE('',#566,#219,#574,.T.);
#574 = LINE('',#575,#576);
#575 = CARTESIAN_POINT('',(97.85,-110.15,1.2));
#576 = VECTOR('',#577,1.);
#577 = DIRECTION('',(-8.659560562355E-17,-8.659560562355E-17,-1.));
#578 = ORIENTED_EDGE('',*,*,#226,.F.);
#579 = PLANE('',#580);
#580 = AXIS2_PLACEMENT_3D('',#581,#582,#583);
#581 = CARTESIAN_POINT('',(98.35,-110.15,1.2));
#582 = DIRECTION('',(2.22044604925E-16,-1.,8.659560562355E-17));
#583 = DIRECTION('',(-8.659560562355E-17,-8.659560562355E-17,-1.));
#584 = ADVANCED_FACE('',(#585),#603,.T.);
#585 = FACE_BOUND('',#586,.T.);
#586 = EDGE_LOOP('',(#587,#588,#596,#602));
#587 = ORIENTED_EDGE('',*,*,#573,.F.);
#588 = ORIENTED_EDGE('',*,*,#589,.F.);
#589 = EDGE_CURVE('',#590,#566,#592,.T.);
#590 = VERTEX_POINT('',#591);
#591 = CARTESIAN_POINT('',(97.85,-109.65,1.075));
#592 = LINE('',#593,#594);
#593 = CARTESIAN_POINT('',(97.85,-109.65,1.075));
#594 = VECTOR('',#595,1.);
#595 = DIRECTION('',(2.22044604925E-16,-1.,8.659560562355E-17));
#596 = ORIENTED_EDGE('',*,*,#597,.T.);
#597 = EDGE_CURVE('',#590,#211,#598,.T.);
#598 = LINE('',#599,#600);
#599 = CARTESIAN_POINT('',(97.85,-109.65,1.2));
#600 = VECTOR('',#601,1.);
#601 = DIRECTION('',(-8.659560562355E-17,-8.659560562355E-17,-1.));
#602 = ORIENTED_EDGE('',*,*,#218,.F.);
#603 = PLANE('',#604);
#604 = AXIS2_PLACEMENT_3D('',#605,#606,#607);
#605 = CARTESIAN_POINT('',(97.85,-109.65,1.2));
#606 = DIRECTION('',(-1.,-2.22044604925E-16,8.659560562355E-17));
#607 = DIRECTION('',(-8.659560562355E-17,-8.659560562355E-17,-1.));
#608 = ADVANCED_FACE('',(#609),#620,.F.);
#609 = FACE_BOUND('',#610,.F.);
#610 = EDGE_LOOP('',(#611,#612,#618,#619));
#611 = ORIENTED_EDGE('',*,*,#549,.F.);
#612 = ORIENTED_EDGE('',*,*,#613,.T.);
#613 = EDGE_CURVE('',#542,#590,#614,.T.);
#614 = LINE('',#615,#616);
#615 = CARTESIAN_POINT('',(98.35,-109.65,1.075));
#616 = VECTOR('',#617,1.);
#617 = DIRECTION('',(-1.,-2.22044604925E-16,8.659560562355E-17));
#618 = ORIENTED_EDGE('',*,*,#597,.T.);
#619 = ORIENTED_EDGE('',*,*,#210,.F.);
#620 = PLANE('',#621);
#621 = AXIS2_PLACEMENT_3D('',#622,#623,#624);
#622 = CARTESIAN_POINT('',(98.35,-109.65,1.2));
#623 = DIRECTION('',(2.22044604925E-16,-1.,8.659560562355E-17));
#624 = DIRECTION('',(-8.659560562355E-17,-8.659560562355E-17,-1.));
#625 = ADVANCED_FACE('',(#626),#651,.T.);
#626 = FACE_BOUND('',#627,.T.);
#627 = EDGE_LOOP('',(#628,#636,#637,#645));
#628 = ORIENTED_EDGE('',*,*,#629,.F.);
#629 = EDGE_CURVE('',#284,#630,#632,.T.);
#630 = VERTEX_POINT('',#631);
#631 = CARTESIAN_POINT('',(97.85,-108.15,-7.475));
#632 = LINE('',#633,#634);
#633 = CARTESIAN_POINT('',(97.85,-108.15,1.2));
#634 = VECTOR('',#635,1.);
#635 = DIRECTION('',(-8.659560562355E-17,-8.659560562355E-17,-1.));
#636 = ORIENTED_EDGE('',*,*,#283,.T.);
#637 = ORIENTED_EDGE('',*,*,#638,.T.);
#638 = EDGE_CURVE('',#286,#639,#641,.T.);
#639 = VERTEX_POINT('',#640);
#640 = CARTESIAN_POINT('',(97.85,-107.65,-7.475));
#641 = LINE('',#642,#643);
#642 = CARTESIAN_POINT('',(97.85,-107.65,1.2));
#643 = VECTOR('',#644,1.);
#644 = DIRECTION('',(-8.659560562355E-17,-8.659560562355E-17,-1.));
#645 = ORIENTED_EDGE('',*,*,#646,.T.);
#646 = EDGE_CURVE('',#639,#630,#647,.T.);
#647 = LINE('',#648,#649);
#648 = CARTESIAN_POINT('',(97.85,-107.65,-7.475));
#649 = VECTOR('',#650,1.);
#650 = DIRECTION('',(2.22044604925E-16,-1.,8.659560562355E-17));
#651 = PLANE('',#652);
#652 = AXIS2_PLACEMENT_3D('',#653,#654,#655);
#653 = CARTESIAN_POINT('',(97.85,-107.65,1.2));
#654 = DIRECTION('',(-1.,-2.22044604925E-16,8.659560562355E-17));
#655 = DIRECTION('',(-8.659560562355E-17,-8.659560562355E-17,-1.));
#656 = ADVANCED_FACE('',(#657),#675,.F.);
#657 = FACE_BOUND('',#658,.F.);
#658 = EDGE_LOOP('',(#659,#667,#668,#669));
#659 = ORIENTED_EDGE('',*,*,#660,.F.);
#660 = EDGE_CURVE('',#302,#661,#663,.T.);
#661 = VERTEX_POINT('',#662);
#662 = CARTESIAN_POINT('',(98.35,-107.65,-7.475));
#663 = LINE('',#664,#665);
#664 = CARTESIAN_POINT('',(98.35,-107.65,1.2));
#665 = VECTOR('',#666,1.);
#666 = DIRECTION('',(-8.659560562355E-17,-8.659560562355E-17,-1.));
#667 = ORIENTED_EDGE('',*,*,#309,.T.);
#668 = ORIENTED_EDGE('',*,*,#638,.T.);
#669 = ORIENTED_EDGE('',*,*,#670,.F.);
#670 = EDGE_CURVE('',#661,#639,#671,.T.);
#671 = LINE('',#672,#673);
#672 = CARTESIAN_POINT('',(98.35,-107.65,-7.475));
#673 = VECTOR('',#674,1.);
#674 = DIRECTION('',(-1.,-2.22044604925E-16,8.659560562355E-17));
#675 = PLANE('',#676);
#676 = AXIS2_PLACEMENT_3D('',#677,#678,#679);
#677 = CARTESIAN_POINT('',(98.35,-107.65,1.2));
#678 = DIRECTION('',(2.22044604925E-16,-1.,8.659560562355E-17));
#679 = DIRECTION('',(-8.659560562355E-17,-8.659560562355E-17,-1.));
#680 = ADVANCED_FACE('',(#681),#699,.F.);
#681 = FACE_BOUND('',#682,.F.);
#682 = EDGE_LOOP('',(#683,#691,#692,#693));
#683 = ORIENTED_EDGE('',*,*,#684,.F.);
#684 = EDGE_CURVE('',#294,#685,#687,.T.);
#685 = VERTEX_POINT('',#686);
#686 = CARTESIAN_POINT('',(98.35,-108.15,-7.475));
#687 = LINE('',#688,#689);
#688 = CARTESIAN_POINT('',(98.35,-108.15,1.2));
#689 = VECTOR('',#690,1.);
#690 = DIRECTION('',(-8.659560562355E-17,-8.659560562355E-17,-1.));
#691 = ORIENTED_EDGE('',*,*,#301,.T.);
#692 = ORIENTED_EDGE('',*,*,#660,.T.);
#693 = ORIENTED_EDGE('',*,*,#694,.T.);
#694 = EDGE_CURVE('',#661,#685,#695,.T.);
#695 = LINE('',#696,#697);
#696 = CARTESIAN_POINT('',(98.35,-107.65,-7.475));
#697 = VECTOR('',#698,1.);
#698 = DIRECTION('',(2.22044604925E-16,-1.,8.659560562355E-17));
#699 = PLANE('',#700);
#700 = AXIS2_PLACEMENT_3D('',#701,#702,#703);
#701 = CARTESIAN_POINT('',(98.35,-107.65,1.2));
#702 = DIRECTION('',(-1.,-2.22044604925E-16,8.659560562355E-17));
#703 = DIRECTION('',(-8.659560562355E-17,-8.659560562355E-17,-1.));
#704 = ADVANCED_FACE('',(#705),#716,.T.);
#705 = FACE_BOUND('',#706,.T.);
#706 = EDGE_LOOP('',(#707,#708,#709,#710));
#707 = ORIENTED_EDGE('',*,*,#684,.F.);
#708 = ORIENTED_EDGE('',*,*,#293,.T.);
#709 = ORIENTED_EDGE('',*,*,#629,.T.);
#710 = ORIENTED_EDGE('',*,*,#711,.F.);
#711 = EDGE_CURVE('',#685,#630,#712,.T.);
#712 = LINE('',#713,#714);
#713 = CARTESIAN_POINT('',(98.35,-108.15,-7.475));
#714 = VECTOR('',#715,1.);
#715 = DIRECTION('',(-1.,-2.22044604925E-16,8.659560562355E-17));
#716 = PLANE('',#717);
#717 = AXIS2_PLACEMENT_3D('',#718,#719,#720);
#718 = CARTESIAN_POINT('',(98.35,-108.15,1.2));
#719 = DIRECTION('',(2.22044604925E-16,-1.,8.659560562355E-17));
#720 = DIRECTION('',(-8.659560562355E-17,-8.659560562355E-17,-1.));
#721 = ADVANCED_FACE('',(#722),#747,.F.);
#722 = FACE_BOUND('',#723,.F.);
#723 = EDGE_LOOP('',(#724,#732,#733,#741));
#724 = ORIENTED_EDGE('',*,*,#725,.F.);
#725 = EDGE_CURVE('',#318,#726,#728,.T.);
#726 = VERTEX_POINT('',#727);
#727 = CARTESIAN_POINT('',(98.35,-110.15,-7.475));
#728 = LINE('',#729,#730);
#729 = CARTESIAN_POINT('',(98.35,-110.15,1.2));
#730 = VECTOR('',#731,1.);
#731 = DIRECTION('',(-8.659560562355E-17,-8.659560562355E-17,-1.));
#732 = ORIENTED_EDGE('',*,*,#317,.T.);
#733 = ORIENTED_EDGE('',*,*,#734,.T.);
#734 = EDGE_CURVE('',#320,#735,#737,.T.);
#735 = VERTEX_POINT('',#736);
#736 = CARTESIAN_POINT('',(98.35,-109.65,-7.475));
#737 = LINE('',#738,#739);
#738 = CARTESIAN_POINT('',(98.35,-109.65,1.2));
#739 = VECTOR('',#740,1.);
#740 = DIRECTION('',(-8.659560562355E-17,-8.659560562355E-17,-1.));
#741 = ORIENTED_EDGE('',*,*,#742,.T.);
#742 = EDGE_CURVE('',#735,#726,#743,.T.);
#743 = LINE('',#744,#745);
#744 = CARTESIAN_POINT('',(98.35,-109.65,-7.475));
#745 = VECTOR('',#746,1.);
#746 = DIRECTION('',(2.22044604925E-16,-1.,8.659560562355E-17));
#747 = PLANE('',#748);
#748 = AXIS2_PLACEMENT_3D('',#749,#750,#751);
#749 = CARTESIAN_POINT('',(98.35,-109.65,1.2));
#750 = DIRECTION('',(-1.,-2.22044604925E-16,8.659560562355E-17));
#751 = DIRECTION('',(-8.659560562355E-17,-8.659560562355E-17,-1.));
#752 = ADVANCED_FACE('',(#753),#771,.T.);
#753 = FACE_BOUND('',#754,.T.);
#754 = EDGE_LOOP('',(#755,#756,#757,#765));
#755 = ORIENTED_EDGE('',*,*,#725,.F.);
#756 = ORIENTED_EDGE('',*,*,#343,.T.);
#757 = ORIENTED_EDGE('',*,*,#758,.T.);
#758 = EDGE_CURVE('',#336,#759,#761,.T.);
#759 = VERTEX_POINT('',#760);
#760 = CARTESIAN_POINT('',(97.85,-110.15,-7.475));
#761 = LINE('',#762,#763);
#762 = CARTESIAN_POINT('',(97.85,-110.15,1.2));
#763 = VECTOR('',#764,1.);
#764 = DIRECTION('',(-8.659560562355E-17,-8.659560562355E-17,-1.));
#765 = ORIENTED_EDGE('',*,*,#766,.F.);
#766 = EDGE_CURVE('',#726,#759,#767,.T.);
#767 = LINE('',#768,#769);
#768 = CARTESIAN_POINT('',(98.35,-110.15,-7.475));
#769 = VECTOR('',#770,1.);
#770 = DIRECTION('',(-1.,-2.22044604925E-16,8.659560562355E-17));
#771 = PLANE('',#772);
#772 = AXIS2_PLACEMENT_3D('',#773,#774,#775);
#773 = CARTESIAN_POINT('',(98.35,-110.15,1.2));
#774 = DIRECTION('',(2.22044604925E-16,-1.,8.659560562355E-17));
#775 = DIRECTION('',(-8.659560562355E-17,-8.659560562355E-17,-1.));
#776 = ADVANCED_FACE('',(#777),#795,.T.);
#777 = FACE_BOUND('',#778,.T.);
#778 = EDGE_LOOP('',(#779,#780,#781,#789));
#779 = ORIENTED_EDGE('',*,*,#758,.F.);
#780 = ORIENTED_EDGE('',*,*,#335,.T.);
#781 = ORIENTED_EDGE('',*,*,#782,.T.);
#782 = EDGE_CURVE('',#328,#783,#785,.T.);
#783 = VERTEX_POINT('',#784);
#784 = CARTESIAN_POINT('',(97.85,-109.65,-7.475));
#785 = LINE('',#786,#787);
#786 = CARTESIAN_POINT('',(97.85,-109.65,1.2));
#787 = VECTOR('',#788,1.);
#788 = DIRECTION('',(-8.659560562355E-17,-8.659560562355E-17,-1.));
#789 = ORIENTED_EDGE('',*,*,#790,.T.);
#790 = EDGE_CURVE('',#783,#759,#791,.T.);
#791 = LINE('',#792,#793);
#792 = CARTESIAN_POINT('',(97.85,-109.65,-7.475));
#793 = VECTOR('',#794,1.);
#794 = DIRECTION('',(2.22044604925E-16,-1.,8.659560562355E-17));
#795 = PLANE('',#796);
#796 = AXIS2_PLACEMENT_3D('',#797,#798,#799);
#797 = CARTESIAN_POINT('',(97.85,-109.65,1.2));
#798 = DIRECTION('',(-1.,-2.22044604925E-16,8.659560562355E-17));
#799 = DIRECTION('',(-8.659560562355E-17,-8.659560562355E-17,-1.));
#800 = ADVANCED_FACE('',(#801),#812,.F.);
#801 = FACE_BOUND('',#802,.F.);
#802 = EDGE_LOOP('',(#803,#804,#805,#806));
#803 = ORIENTED_EDGE('',*,*,#734,.F.);
#804 = ORIENTED_EDGE('',*,*,#327,.T.);
#805 = ORIENTED_EDGE('',*,*,#782,.T.);
#806 = ORIENTED_EDGE('',*,*,#807,.F.);
#807 = EDGE_CURVE('',#735,#783,#808,.T.);
#808 = LINE('',#809,#810);
#809 = CARTESIAN_POINT('',(98.35,-109.65,-7.475));
#810 = VECTOR('',#811,1.);
#811 = DIRECTION('',(-1.,-2.22044604925E-16,8.659560562355E-17));
#812 = PLANE('',#813);
#813 = AXIS2_PLACEMENT_3D('',#814,#815,#816);
#814 = CARTESIAN_POINT('',(98.35,-109.65,1.2));
#815 = DIRECTION('',(2.22044604925E-16,-1.,8.659560562355E-17));
#816 = DIRECTION('',(-8.659560562355E-17,-8.659560562355E-17,-1.));
#817 = ADVANCED_FACE('',(#818),#843,.F.);
#818 = FACE_BOUND('',#819,.T.);
#819 = EDGE_LOOP('',(#820,#828,#829,#837));
#820 = ORIENTED_EDGE('',*,*,#821,.F.);
#821 = EDGE_CURVE('',#446,#822,#824,.T.);
#822 = VERTEX_POINT('',#823);
#823 = CARTESIAN_POINT('',(97.975,-107.775,1.2));
#824 = LINE('',#825,#826);
#825 = CARTESIAN_POINT('',(97.975,-107.775,1.2));
#826 = VECTOR('',#827,1.);
#827 = DIRECTION('',(0.57735026919,-0.57735026919,0.57735026919));
#828 = ORIENTED_EDGE('',*,*,#445,.T.);
#829 = ORIENTED_EDGE('',*,*,#830,.T.);
#830 = EDGE_CURVE('',#438,#831,#833,.T.);
#831 = VERTEX_POINT('',#832);
#832 = CARTESIAN_POINT('',(97.975,-108.025,1.2));
#833 = LINE('',#834,#835);
#834 = CARTESIAN_POINT('',(98.058333333333,-107.9416666666,
    1.283333333333));
#835 = VECTOR('',#836,1.);
#836 = DIRECTION('',(0.57735026919,0.57735026919,0.57735026919));
#837 = ORIENTED_EDGE('',*,*,#838,.F.);
#838 = EDGE_CURVE('',#822,#831,#839,.T.);
#839 = LINE('',#840,#841);
#840 = CARTESIAN_POINT('',(97.975,-107.65,1.2));
#841 = VECTOR('',#842,1.);
#842 = DIRECTION('',(2.22044604925E-16,-1.,8.659560562355E-17));
#843 = PLANE('',#844);
#844 = AXIS2_PLACEMENT_3D('',#845,#846,#847);
#845 = CARTESIAN_POINT('',(97.9125,-107.65,1.1375));
#846 = DIRECTION('',(0.707106781187,9.577690591101E-17,-0.707106781187)
  );
#847 = DIRECTION('',(-2.22044604925E-16,1.,-8.659560562355E-17));
#848 = ADVANCED_FACE('',(#849),#867,.T.);
#849 = FACE_BOUND('',#850,.T.);
#850 = EDGE_LOOP('',(#851,#859,#860,#861));
#851 = ORIENTED_EDGE('',*,*,#852,.F.);
#852 = EDGE_CURVE('',#469,#853,#855,.T.);
#853 = VERTEX_POINT('',#854);
#854 = CARTESIAN_POINT('',(98.225,-107.775,1.2));
#855 = LINE('',#856,#857);
#856 = CARTESIAN_POINT('',(98.308333333333,-107.6916666666,
    1.116666666667));
#857 = VECTOR('',#858,1.);
#858 = DIRECTION('',(-0.57735026919,-0.57735026919,0.57735026919));
#859 = ORIENTED_EDGE('',*,*,#476,.T.);
#860 = ORIENTED_EDGE('',*,*,#821,.T.);
#861 = ORIENTED_EDGE('',*,*,#862,.F.);
#862 = EDGE_CURVE('',#853,#822,#863,.T.);
#863 = LINE('',#864,#865);
#864 = CARTESIAN_POINT('',(98.35,-107.775,1.2));
#865 = VECTOR('',#866,1.);
#866 = DIRECTION('',(-1.,-2.22044604925E-16,8.659560562355E-17));
#867 = PLANE('',#868);
#868 = AXIS2_PLACEMENT_3D('',#869,#870,#871);
#869 = CARTESIAN_POINT('',(98.35,-107.7125,1.1375));
#870 = DIRECTION('',(-9.577690591101E-17,0.707106781187,0.707106781187)
  );
#871 = DIRECTION('',(-1.,-2.22044604925E-16,8.659560562355E-17));
#872 = ADVANCED_FACE('',(#873),#891,.T.);
#873 = FACE_BOUND('',#874,.F.);
#874 = EDGE_LOOP('',(#875,#876,#877,#885));
#875 = ORIENTED_EDGE('',*,*,#852,.F.);
#876 = ORIENTED_EDGE('',*,*,#500,.T.);
#877 = ORIENTED_EDGE('',*,*,#878,.T.);
#878 = EDGE_CURVE('',#493,#879,#881,.T.);
#879 = VERTEX_POINT('',#880);
#880 = CARTESIAN_POINT('',(98.225,-108.025,1.2));
#881 = LINE('',#882,#883);
#882 = CARTESIAN_POINT('',(98.225,-108.025,1.2));
#883 = VECTOR('',#884,1.);
#884 = DIRECTION('',(-0.57735026919,0.57735026919,0.57735026919));
#885 = ORIENTED_EDGE('',*,*,#886,.F.);
#886 = EDGE_CURVE('',#853,#879,#887,.T.);
#887 = LINE('',#888,#889);
#888 = CARTESIAN_POINT('',(98.225,-107.65,1.2));
#889 = VECTOR('',#890,1.);
#890 = DIRECTION('',(2.22044604925E-16,-1.,8.659560562355E-17));
#891 = PLANE('',#892);
#892 = AXIS2_PLACEMENT_3D('',#893,#894,#895);
#893 = CARTESIAN_POINT('',(98.2875,-107.65,1.1375));
#894 = DIRECTION('',(0.707106781187,2.182415858257E-16,0.707106781187));
#895 = DIRECTION('',(-2.22044604925E-16,1.,-8.659560562355E-17));
#896 = ADVANCED_FACE('',(#897),#908,.F.);
#897 = FACE_BOUND('',#898,.F.);
#898 = EDGE_LOOP('',(#899,#900,#901,#902));
#899 = ORIENTED_EDGE('',*,*,#878,.F.);
#900 = ORIENTED_EDGE('',*,*,#517,.T.);
#901 = ORIENTED_EDGE('',*,*,#830,.T.);
#902 = ORIENTED_EDGE('',*,*,#903,.F.);
#903 = EDGE_CURVE('',#879,#831,#904,.T.);
#904 = LINE('',#905,#906);
#905 = CARTESIAN_POINT('',(98.35,-108.025,1.2));
#906 = VECTOR('',#907,1.);
#907 = DIRECTION('',(-1.,-2.22044604925E-16,8.659560562355E-17));
#908 = PLANE('',#909);
#909 = AXIS2_PLACEMENT_3D('',#910,#911,#912);
#910 = CARTESIAN_POINT('',(98.35,-108.0875,1.1375));
#911 = DIRECTION('',(-2.182415858257E-16,0.707106781187,-0.707106781187)
  );
#912 = DIRECTION('',(-1.,-2.22044604925E-16,8.659560562355E-17));
#913 = ADVANCED_FACE('',(#914),#939,.T.);
#914 = FACE_BOUND('',#915,.F.);
#915 = EDGE_LOOP('',(#916,#924,#925,#933));
#916 = ORIENTED_EDGE('',*,*,#917,.F.);
#917 = EDGE_CURVE('',#542,#918,#920,.T.);
#918 = VERTEX_POINT('',#919);
#919 = CARTESIAN_POINT('',(98.225,-109.775,1.2));
#920 = LINE('',#921,#922);
#921 = CARTESIAN_POINT('',(98.308333333333,-109.6916666666,
    1.116666666667));
#922 = VECTOR('',#923,1.);
#923 = DIRECTION('',(-0.57735026919,-0.57735026919,0.57735026919));
#924 = ORIENTED_EDGE('',*,*,#541,.T.);
#925 = ORIENTED_EDGE('',*,*,#926,.T.);
#926 = EDGE_CURVE('',#534,#927,#929,.T.);
#927 = VERTEX_POINT('',#928);
#928 = CARTESIAN_POINT('',(98.225,-110.025,1.2));
#929 = LINE('',#930,#931);
#930 = CARTESIAN_POINT('',(98.225,-110.025,1.2));
#931 = VECTOR('',#932,1.);
#932 = DIRECTION('',(-0.57735026919,0.57735026919,0.57735026919));
#933 = ORIENTED_EDGE('',*,*,#934,.F.);
#934 = EDGE_CURVE('',#918,#927,#935,.T.);
#935 = LINE('',#936,#937);
#936 = CARTESIAN_POINT('',(98.225,-109.65,1.2));
#937 = VECTOR('',#938,1.);
#938 = DIRECTION('',(2.22044604925E-16,-1.,8.659560562355E-17));
#939 = PLANE('',#940);
#940 = AXIS2_PLACEMENT_3D('',#941,#942,#943);
#941 = CARTESIAN_POINT('',(98.2875,-109.65,1.1375));
#942 = DIRECTION('',(0.707106781187,2.182415858257E-16,0.707106781187));
#943 = DIRECTION('',(-2.22044604925E-16,1.,-8.659560562355E-17));
#944 = ADVANCED_FACE('',(#945),#963,.F.);
#945 = FACE_BOUND('',#946,.F.);
#946 = EDGE_LOOP('',(#947,#948,#949,#957));
#947 = ORIENTED_EDGE('',*,*,#926,.F.);
#948 = ORIENTED_EDGE('',*,*,#565,.T.);
#949 = ORIENTED_EDGE('',*,*,#950,.T.);
#950 = EDGE_CURVE('',#566,#951,#953,.T.);
#951 = VERTEX_POINT('',#952);
#952 = CARTESIAN_POINT('',(97.975,-110.025,1.2));
#953 = LINE('',#954,#955);
#954 = CARTESIAN_POINT('',(98.058333333333,-109.9416666666,
    1.283333333333));
#955 = VECTOR('',#956,1.);
#956 = DIRECTION('',(0.57735026919,0.57735026919,0.57735026919));
#957 = ORIENTED_EDGE('',*,*,#958,.F.);
#958 = EDGE_CURVE('',#927,#951,#959,.T.);
#959 = LINE('',#960,#961);
#960 = CARTESIAN_POINT('',(98.35,-110.025,1.2));
#961 = VECTOR('',#962,1.);
#962 = DIRECTION('',(-1.,-2.22044604925E-16,8.659560562355E-17));
#963 = PLANE('',#964);
#964 = AXIS2_PLACEMENT_3D('',#965,#966,#967);
#965 = CARTESIAN_POINT('',(98.35,-110.0875,1.1375));
#966 = DIRECTION('',(-2.182415858257E-16,0.707106781187,-0.707106781187)
  );
#967 = DIRECTION('',(-1.,-2.22044604925E-16,8.659560562355E-17));
#968 = ADVANCED_FACE('',(#969),#987,.F.);
#969 = FACE_BOUND('',#970,.T.);
#970 = EDGE_LOOP('',(#971,#979,#980,#981));
#971 = ORIENTED_EDGE('',*,*,#972,.F.);
#972 = EDGE_CURVE('',#590,#973,#975,.T.);
#973 = VERTEX_POINT('',#974);
#974 = CARTESIAN_POINT('',(97.975,-109.775,1.2));
#975 = LINE('',#976,#977);
#976 = CARTESIAN_POINT('',(97.975,-109.775,1.2));
#977 = VECTOR('',#978,1.);
#978 = DIRECTION('',(0.57735026919,-0.57735026919,0.57735026919));
#979 = ORIENTED_EDGE('',*,*,#589,.T.);
#980 = ORIENTED_EDGE('',*,*,#950,.T.);
#981 = ORIENTED_EDGE('',*,*,#982,.F.);
#982 = EDGE_CURVE('',#973,#951,#983,.T.);
#983 = LINE('',#984,#985);
#984 = CARTESIAN_POINT('',(97.975,-109.65,1.2));
#985 = VECTOR('',#986,1.);
#986 = DIRECTION('',(2.22044604925E-16,-1.,8.659560562355E-17));
#987 = PLANE('',#988);
#988 = AXIS2_PLACEMENT_3D('',#989,#990,#991);
#989 = CARTESIAN_POINT('',(97.9125,-109.65,1.1375));
#990 = DIRECTION('',(0.707106781187,9.577690591101E-17,-0.707106781187)
  );
#991 = DIRECTION('',(-2.22044604925E-16,1.,-8.659560562355E-17));
#992 = ADVANCED_FACE('',(#993),#1004,.T.);
#993 = FACE_BOUND('',#994,.T.);
#994 = EDGE_LOOP('',(#995,#996,#997,#998));
#995 = ORIENTED_EDGE('',*,*,#917,.F.);
#996 = ORIENTED_EDGE('',*,*,#613,.T.);
#997 = ORIENTED_EDGE('',*,*,#972,.T.);
#998 = ORIENTED_EDGE('',*,*,#999,.F.);
#999 = EDGE_CURVE('',#918,#973,#1000,.T.);
#1000 = LINE('',#1001,#1002);
#1001 = CARTESIAN_POINT('',(98.35,-109.775,1.2));
#1002 = VECTOR('',#1003,1.);
#1003 = DIRECTION('',(-1.,-2.22044604925E-16,8.659560562355E-17));
#1004 = PLANE('',#1005);
#1005 = AXIS2_PLACEMENT_3D('',#1006,#1007,#1008);
#1006 = CARTESIAN_POINT('',(98.35,-109.7125,1.1375));
#1007 = DIRECTION('',(-9.577690591101E-17,0.707106781187,0.707106781187)
  );
#1008 = DIRECTION('',(-1.,-2.22044604925E-16,8.659560562355E-17));
#1009 = ADVANCED_FACE('',(#1010),#1035,.T.);
#1010 = FACE_BOUND('',#1011,.F.);
#1011 = EDGE_LOOP('',(#1012,#1020,#1021,#1029));
#1012 = ORIENTED_EDGE('',*,*,#1013,.F.);
#1013 = EDGE_CURVE('',#639,#1014,#1016,.T.);
#1014 = VERTEX_POINT('',#1015);
#1015 = CARTESIAN_POINT('',(97.975,-107.775,-7.6));
#1016 = LINE('',#1017,#1018);
#1017 = CARTESIAN_POINT('',(97.975,-107.775,-7.6));
#1018 = VECTOR('',#1019,1.);
#1019 = DIRECTION('',(0.57735026919,-0.57735026919,-0.57735026919));
#1020 = ORIENTED_EDGE('',*,*,#646,.T.);
#1021 = ORIENTED_EDGE('',*,*,#1022,.T.);
#1022 = EDGE_CURVE('',#630,#1023,#1025,.T.);
#1023 = VERTEX_POINT('',#1024);
#1024 = CARTESIAN_POINT('',(97.975,-108.025,-7.6));
#1025 = LINE('',#1026,#1027);
#1026 = CARTESIAN_POINT('',(98.058333333333,-107.9416666666,
    -7.683333333333));
#1027 = VECTOR('',#1028,1.);
#1028 = DIRECTION('',(0.57735026919,0.57735026919,-0.57735026919));
#1029 = ORIENTED_EDGE('',*,*,#1030,.F.);
#1030 = EDGE_CURVE('',#1014,#1023,#1031,.T.);
#1031 = LINE('',#1032,#1033);
#1032 = CARTESIAN_POINT('',(97.975,-107.65,-7.6));
#1033 = VECTOR('',#1034,1.);
#1034 = DIRECTION('',(2.22044604925E-16,-1.,8.659560562355E-17));
#1035 = PLANE('',#1036);
#1036 = AXIS2_PLACEMENT_3D('',#1037,#1038,#1039);
#1037 = CARTESIAN_POINT('',(97.9125,-107.65,-7.5375));
#1038 = DIRECTION('',(-0.707106781187,-2.182415858257E-16,
    -0.707106781187));
#1039 = DIRECTION('',(-2.22044604925E-16,1.,-8.659560562355E-17));
#1040 = ADVANCED_FACE('',(#1041),#1059,.F.);
#1041 = FACE_BOUND('',#1042,.F.);
#1042 = EDGE_LOOP('',(#1043,#1051,#1052,#1053));
#1043 = ORIENTED_EDGE('',*,*,#1044,.F.);
#1044 = EDGE_CURVE('',#661,#1045,#1047,.T.);
#1045 = VERTEX_POINT('',#1046);
#1046 = CARTESIAN_POINT('',(98.225,-107.775,-7.6));
#1047 = LINE('',#1048,#1049);
#1048 = CARTESIAN_POINT('',(98.308333333333,-107.6916666666,
    -7.516666666667));
#1049 = VECTOR('',#1050,1.);
#1050 = DIRECTION('',(-0.57735026919,-0.57735026919,-0.57735026919));
#1051 = ORIENTED_EDGE('',*,*,#670,.T.);
#1052 = ORIENTED_EDGE('',*,*,#1013,.T.);
#1053 = ORIENTED_EDGE('',*,*,#1054,.F.);
#1054 = EDGE_CURVE('',#1045,#1014,#1055,.T.);
#1055 = LINE('',#1056,#1057);
#1056 = CARTESIAN_POINT('',(98.35,-107.775,-7.6));
#1057 = VECTOR('',#1058,1.);
#1058 = DIRECTION('',(-1.,-2.22044604925E-16,8.659560562355E-17));
#1059 = PLANE('',#1060);
#1060 = AXIS2_PLACEMENT_3D('',#1061,#1062,#1063);
#1061 = CARTESIAN_POINT('',(98.35,-107.7125,-7.5375));
#1062 = DIRECTION('',(2.182415858257E-16,-0.707106781187,0.707106781187)
  );
#1063 = DIRECTION('',(-1.,-2.22044604925E-16,8.659560562355E-17));
#1064 = ADVANCED_FACE('',(#1065),#1083,.F.);
#1065 = FACE_BOUND('',#1066,.T.);
#1066 = EDGE_LOOP('',(#1067,#1068,#1069,#1077));
#1067 = ORIENTED_EDGE('',*,*,#1044,.F.);
#1068 = ORIENTED_EDGE('',*,*,#694,.T.);
#1069 = ORIENTED_EDGE('',*,*,#1070,.T.);
#1070 = EDGE_CURVE('',#685,#1071,#1073,.T.);
#1071 = VERTEX_POINT('',#1072);
#1072 = CARTESIAN_POINT('',(98.225,-108.025,-7.6));
#1073 = LINE('',#1074,#1075);
#1074 = CARTESIAN_POINT('',(98.225,-108.025,-7.6));
#1075 = VECTOR('',#1076,1.);
#1076 = DIRECTION('',(-0.57735026919,0.57735026919,-0.57735026919));
#1077 = ORIENTED_EDGE('',*,*,#1078,.F.);
#1078 = EDGE_CURVE('',#1045,#1071,#1079,.T.);
#1079 = LINE('',#1080,#1081);
#1080 = CARTESIAN_POINT('',(98.225,-107.65,-7.6));
#1081 = VECTOR('',#1082,1.);
#1082 = DIRECTION('',(2.22044604925E-16,-1.,8.659560562355E-17));
#1083 = PLANE('',#1084);
#1084 = AXIS2_PLACEMENT_3D('',#1085,#1086,#1087);
#1085 = CARTESIAN_POINT('',(98.2875,-107.65,-7.5375));
#1086 = DIRECTION('',(-0.707106781187,-9.577690591101E-17,0.707106781187
    ));
#1087 = DIRECTION('',(-2.22044604925E-16,1.,-8.659560562355E-17));
#1088 = ADVANCED_FACE('',(#1089),#1100,.T.);
#1089 = FACE_BOUND('',#1090,.T.);
#1090 = EDGE_LOOP('',(#1091,#1092,#1093,#1094));
#1091 = ORIENTED_EDGE('',*,*,#1070,.F.);
#1092 = ORIENTED_EDGE('',*,*,#711,.T.);
#1093 = ORIENTED_EDGE('',*,*,#1022,.T.);
#1094 = ORIENTED_EDGE('',*,*,#1095,.F.);
#1095 = EDGE_CURVE('',#1071,#1023,#1096,.T.);
#1096 = LINE('',#1097,#1098);
#1097 = CARTESIAN_POINT('',(98.35,-108.025,-7.6));
#1098 = VECTOR('',#1099,1.);
#1099 = DIRECTION('',(-1.,-2.22044604925E-16,8.659560562355E-17));
#1100 = PLANE('',#1101);
#1101 = AXIS2_PLACEMENT_3D('',#1102,#1103,#1104);
#1102 = CARTESIAN_POINT('',(98.35,-108.0875,-7.5375));
#1103 = DIRECTION('',(9.577690591101E-17,-0.707106781187,-0.707106781187
    ));
#1104 = DIRECTION('',(-1.,-2.22044604925E-16,8.659560562355E-17));
#1105 = ADVANCED_FACE('',(#1106),#1131,.F.);
#1106 = FACE_BOUND('',#1107,.T.);
#1107 = EDGE_LOOP('',(#1108,#1116,#1117,#1125));
#1108 = ORIENTED_EDGE('',*,*,#1109,.F.);
#1109 = EDGE_CURVE('',#735,#1110,#1112,.T.);
#1110 = VERTEX_POINT('',#1111);
#1111 = CARTESIAN_POINT('',(98.225,-109.775,-7.6));
#1112 = LINE('',#1113,#1114);
#1113 = CARTESIAN_POINT('',(98.308333333333,-109.6916666666,
    -7.516666666667));
#1114 = VECTOR('',#1115,1.);
#1115 = DIRECTION('',(-0.57735026919,-0.57735026919,-0.57735026919));
#1116 = ORIENTED_EDGE('',*,*,#742,.T.);
#1117 = ORIENTED_EDGE('',*,*,#1118,.T.);
#1118 = EDGE_CURVE('',#726,#1119,#1121,.T.);
#1119 = VERTEX_POINT('',#1120);
#1120 = CARTESIAN_POINT('',(98.225,-110.025,-7.6));
#1121 = LINE('',#1122,#1123);
#1122 = CARTESIAN_POINT('',(98.225,-110.025,-7.6));
#1123 = VECTOR('',#1124,1.);
#1124 = DIRECTION('',(-0.57735026919,0.57735026919,-0.57735026919));
#1125 = ORIENTED_EDGE('',*,*,#1126,.F.);
#1126 = EDGE_CURVE('',#1110,#1119,#1127,.T.);
#1127 = LINE('',#1128,#1129);
#1128 = CARTESIAN_POINT('',(98.225,-109.65,-7.6));
#1129 = VECTOR('',#1130,1.);
#1130 = DIRECTION('',(2.22044604925E-16,-1.,8.659560562355E-17));
#1131 = PLANE('',#1132);
#1132 = AXIS2_PLACEMENT_3D('',#1133,#1134,#1135);
#1133 = CARTESIAN_POINT('',(98.2875,-109.65,-7.5375));
#1134 = DIRECTION('',(-0.707106781187,-9.577690591101E-17,0.707106781187
    ));
#1135 = DIRECTION('',(-2.22044604925E-16,1.,-8.659560562355E-17));
#1136 = ADVANCED_FACE('',(#1137),#1155,.T.);
#1137 = FACE_BOUND('',#1138,.T.);
#1138 = EDGE_LOOP('',(#1139,#1140,#1141,#1149));
#1139 = ORIENTED_EDGE('',*,*,#1118,.F.);
#1140 = ORIENTED_EDGE('',*,*,#766,.T.);
#1141 = ORIENTED_EDGE('',*,*,#1142,.T.);
#1142 = EDGE_CURVE('',#759,#1143,#1145,.T.);
#1143 = VERTEX_POINT('',#1144);
#1144 = CARTESIAN_POINT('',(97.975,-110.025,-7.6));
#1145 = LINE('',#1146,#1147);
#1146 = CARTESIAN_POINT('',(98.058333333333,-109.9416666666,
    -7.683333333333));
#1147 = VECTOR('',#1148,1.);
#1148 = DIRECTION('',(0.57735026919,0.57735026919,-0.57735026919));
#1149 = ORIENTED_EDGE('',*,*,#1150,.F.);
#1150 = EDGE_CURVE('',#1119,#1143,#1151,.T.);
#1151 = LINE('',#1152,#1153);
#1152 = CARTESIAN_POINT('',(98.35,-110.025,-7.6));
#1153 = VECTOR('',#1154,1.);
#1154 = DIRECTION('',(-1.,-2.22044604925E-16,8.659560562355E-17));
#1155 = PLANE('',#1156);
#1156 = AXIS2_PLACEMENT_3D('',#1157,#1158,#1159);
#1157 = CARTESIAN_POINT('',(98.35,-110.0875,-7.5375));
#1158 = DIRECTION('',(9.577690591101E-17,-0.707106781187,-0.707106781187
    ));
#1159 = DIRECTION('',(-1.,-2.22044604925E-16,8.659560562355E-17));
#1160 = ADVANCED_FACE('',(#1161),#1179,.T.);
#1161 = FACE_BOUND('',#1162,.F.);
#1162 = EDGE_LOOP('',(#1163,#1171,#1172,#1173));
#1163 = ORIENTED_EDGE('',*,*,#1164,.F.);
#1164 = EDGE_CURVE('',#783,#1165,#1167,.T.);
#1165 = VERTEX_POINT('',#1166);
#1166 = CARTESIAN_POINT('',(97.975,-109.775,-7.6));
#1167 = LINE('',#1168,#1169);
#1168 = CARTESIAN_POINT('',(97.975,-109.775,-7.6));
#1169 = VECTOR('',#1170,1.);
#1170 = DIRECTION('',(0.57735026919,-0.57735026919,-0.57735026919));
#1171 = ORIENTED_EDGE('',*,*,#790,.T.);
#1172 = ORIENTED_EDGE('',*,*,#1142,.T.);
#1173 = ORIENTED_EDGE('',*,*,#1174,.F.);
#1174 = EDGE_CURVE('',#1165,#1143,#1175,.T.);
#1175 = LINE('',#1176,#1177);
#1176 = CARTESIAN_POINT('',(97.975,-109.65,-7.6));
#1177 = VECTOR('',#1178,1.);
#1178 = DIRECTION('',(2.22044604925E-16,-1.,8.659560562355E-17));
#1179 = PLANE('',#1180);
#1180 = AXIS2_PLACEMENT_3D('',#1181,#1182,#1183);
#1181 = CARTESIAN_POINT('',(97.9125,-109.65,-7.5375));
#1182 = DIRECTION('',(-0.707106781187,-2.182415858257E-16,
    -0.707106781187));
#1183 = DIRECTION('',(-2.22044604925E-16,1.,-8.659560562355E-17));
#1184 = ADVANCED_FACE('',(#1185),#1196,.F.);
#1185 = FACE_BOUND('',#1186,.F.);
#1186 = EDGE_LOOP('',(#1187,#1188,#1189,#1190));
#1187 = ORIENTED_EDGE('',*,*,#1109,.F.);
#1188 = ORIENTED_EDGE('',*,*,#807,.T.);
#1189 = ORIENTED_EDGE('',*,*,#1164,.T.);
#1190 = ORIENTED_EDGE('',*,*,#1191,.F.);
#1191 = EDGE_CURVE('',#1110,#1165,#1192,.T.);
#1192 = LINE('',#1193,#1194);
#1193 = CARTESIAN_POINT('',(98.35,-109.775,-7.6));
#1194 = VECTOR('',#1195,1.);
#1195 = DIRECTION('',(-1.,-2.22044604925E-16,8.659560562355E-17));
#1196 = PLANE('',#1197);
#1197 = AXIS2_PLACEMENT_3D('',#1198,#1199,#1200);
#1198 = CARTESIAN_POINT('',(98.35,-109.7125,-7.5375));
#1199 = DIRECTION('',(2.182415858257E-16,-0.707106781187,0.707106781187)
  );
#1200 = DIRECTION('',(-1.,-2.22044604925E-16,8.659560562355E-17));
#1201 = ADVANCED_FACE('',(#1202),#1208,.F.);
#1202 = FACE_BOUND('',#1203,.F.);
#1203 = EDGE_LOOP('',(#1204,#1205,#1206,#1207));
#1204 = ORIENTED_EDGE('',*,*,#903,.T.);
#1205 = ORIENTED_EDGE('',*,*,#838,.F.);
#1206 = ORIENTED_EDGE('',*,*,#862,.F.);
#1207 = ORIENTED_EDGE('',*,*,#886,.T.);
#1208 = PLANE('',#1209);
#1209 = AXIS2_PLACEMENT_3D('',#1210,#1211,#1212);
#1210 = CARTESIAN_POINT('',(98.35,-107.65,1.2));
#1211 = DIRECTION('',(-8.659560562355E-17,-8.659560562355E-17,-1.));
#1212 = DIRECTION('',(2.22044604925E-16,-1.,8.659560562355E-17));
#1213 = ADVANCED_FACE('',(#1214),#1220,.F.);
#1214 = FACE_BOUND('',#1215,.F.);
#1215 = EDGE_LOOP('',(#1216,#1217,#1218,#1219));
#1216 = ORIENTED_EDGE('',*,*,#958,.T.);
#1217 = ORIENTED_EDGE('',*,*,#982,.F.);
#1218 = ORIENTED_EDGE('',*,*,#999,.F.);
#1219 = ORIENTED_EDGE('',*,*,#934,.T.);
#1220 = PLANE('',#1221);
#1221 = AXIS2_PLACEMENT_3D('',#1222,#1223,#1224);
#1222 = CARTESIAN_POINT('',(98.35,-109.65,1.2));
#1223 = DIRECTION('',(-8.659560562355E-17,-8.659560562355E-17,-1.));
#1224 = DIRECTION('',(2.22044604925E-16,-1.,8.659560562355E-17));
#1225 = ADVANCED_FACE('',(#1226),#1232,.T.);
#1226 = FACE_BOUND('',#1227,.T.);
#1227 = EDGE_LOOP('',(#1228,#1229,#1230,#1231));
#1228 = ORIENTED_EDGE('',*,*,#1030,.F.);
#1229 = ORIENTED_EDGE('',*,*,#1054,.F.);
#1230 = ORIENTED_EDGE('',*,*,#1078,.T.);
#1231 = ORIENTED_EDGE('',*,*,#1095,.T.);
#1232 = PLANE('',#1233);
#1233 = AXIS2_PLACEMENT_3D('',#1234,#1235,#1236);
#1234 = CARTESIAN_POINT('',(98.35,-107.65,-7.6));
#1235 = DIRECTION('',(-8.659560562355E-17,-8.659560562355E-17,-1.));
#1236 = DIRECTION('',(2.22044604925E-16,-1.,8.659560562355E-17));
#1237 = ADVANCED_FACE('',(#1238),#1244,.T.);
#1238 = FACE_BOUND('',#1239,.T.);
#1239 = EDGE_LOOP('',(#1240,#1241,#1242,#1243));
#1240 = ORIENTED_EDGE('',*,*,#1174,.F.);
#1241 = ORIENTED_EDGE('',*,*,#1191,.F.);
#1242 = ORIENTED_EDGE('',*,*,#1126,.T.);
#1243 = ORIENTED_EDGE('',*,*,#1150,.T.);
#1244 = PLANE('',#1245);
#1245 = AXIS2_PLACEMENT_3D('',#1246,#1247,#1248);
#1246 = CARTESIAN_POINT('',(98.35,-109.65,-7.6));
#1247 = DIRECTION('',(-8.659560562355E-17,-8.659560562355E-17,-1.));
#1248 = DIRECTION('',(2.22044604925E-16,-1.,8.659560562355E-17));
#1249 = ( GEOMETRIC_REPRESENTATION_CONTEXT(3) 
GLOBAL_UNCERTAINTY_ASSIGNED_CONTEXT((#1253)) 
GLOBAL_UNIT_ASSIGNED_CONTEXT((#1250,#1251,#1252)) REPRESENTATION_CONTEXT
('Context #1','3D Context with UNIT and UNCERTAINTY') );
#1250 = ( LENGTH_UNIT() NAMED_UNIT(*) SI_UNIT(.MILLI.,.METRE.) );
#1251 = ( NAMED_UNIT(*) PLANE_ANGLE_UNIT() SI_UNIT($,.RADIAN.) );
#1252 = ( NAMED_UNIT(*) SI_UNIT($,.STERADIAN.) SOLID_ANGLE_UNIT() );
#1253 = UNCERTAINTY_MEASURE_WITH_UNIT(LENGTH_MEASURE(1.E-07),#1250,
  'distance_accuracy_value','confusion accuracy');
#1254 = PRODUCT_RELATED_PRODUCT_CATEGORY('part',$,(#7));
#1255 = MECHANICAL_DESIGN_GEOMETRIC_PRESENTATION_REPRESENTATION('',(
    #1256,#1267,#1276,#1285,#1294,#1303,#1312,#1321,#1330,#1339,#1348,
    #1357,#1367,#1376,#1385,#1394,#1403,#1412,#1421,#1430,#1439,#1448,
    #1457,#1466,#1475,#1484,#1493,#1502,#1511,#1520,#1529,#1538,#1547,
    #1556,#1565,#1574,#1583,#1592,#1601,#1610,#1619,#1628,#1637,#1646,
    #1655,#1664,#1673),#1249);
#1256 = STYLED_ITEM('color',(#1257),#15);
#1257 = PRESENTATION_STYLE_ASSIGNMENT((#1258,#1264));
#1258 = SURFACE_STYLE_USAGE(.BOTH.,#1259);
#1259 = SURFACE_SIDE_STYLE('',(#1260));
#1260 = SURFACE_STYLE_FILL_AREA(#1261);
#1261 = FILL_AREA_STYLE('',(#1262));
#1262 = FILL_AREA_STYLE_COLOUR('',#1263);
#1263 = COLOUR_RGB('',0.149019617616,0.145098047169,0.145098047169);
#1264 = CURVE_STYLE('',#1265,POSITIVE_LENGTH_MEASURE(0.1),#1266);
#1265 = DRAUGHTING_PRE_DEFINED_CURVE_FONT('continuous');
#1266 = COLOUR_RGB('',9.803921802644E-02,9.803921802644E-02,
  9.803921802644E-02);
#1267 = OVER_RIDING_STYLED_ITEM('overriding color',(#1268),#17,#1256);
#1268 = PRESENTATION_STYLE_ASSIGNMENT((#1269));
#1269 = SURFACE_STYLE_USAGE(.BOTH.,#1270);
#1270 = SURFACE_SIDE_STYLE('',(#1271,#1274));
#1271 = SURFACE_STYLE_FILL_AREA(#1272);
#1272 = FILL_AREA_STYLE('',(#1273));
#1273 = FILL_AREA_STYLE_COLOUR('',#1263);
#1274 = SURFACE_STYLE_RENDERING_WITH_PROPERTIES(.NORMAL_SHADING.,#1263,(
    #1275));
#1275 = SURFACE_STYLE_TRANSPARENT(1.);
#1276 = OVER_RIDING_STYLED_ITEM('overriding color',(#1277),#57,#1256);
#1277 = PRESENTATION_STYLE_ASSIGNMENT((#1278));
#1278 = SURFACE_STYLE_USAGE(.BOTH.,#1279);
#1279 = SURFACE_SIDE_STYLE('',(#1280,#1283));
#1280 = SURFACE_STYLE_FILL_AREA(#1281);
#1281 = FILL_AREA_STYLE('',(#1282));
#1282 = FILL_AREA_STYLE_COLOUR('',#1263);
#1283 = SURFACE_STYLE_RENDERING_WITH_PROPERTIES(.NORMAL_SHADING.,#1263,(
    #1284));
#1284 = SURFACE_STYLE_TRANSPARENT(1.);
#1285 = OVER_RIDING_STYLED_ITEM('overriding color',(#1286),#88,#1256);
#1286 = PRESENTATION_STYLE_ASSIGNMENT((#1287));
#1287 = SURFACE_STYLE_USAGE(.BOTH.,#1288);
#1288 = SURFACE_SIDE_STYLE('',(#1289,#1292));
#1289 = SURFACE_STYLE_FILL_AREA(#1290);
#1290 = FILL_AREA_STYLE('',(#1291));
#1291 = FILL_AREA_STYLE_COLOUR('',#1263);
#1292 = SURFACE_STYLE_RENDERING_WITH_PROPERTIES(.NORMAL_SHADING.,#1263,(
    #1293));
#1293 = SURFACE_STYLE_TRANSPARENT(1.);
#1294 = OVER_RIDING_STYLED_ITEM('overriding color',(#1295),#119,#1256);
#1295 = PRESENTATION_STYLE_ASSIGNMENT((#1296));
#1296 = SURFACE_STYLE_USAGE(.BOTH.,#1297);
#1297 = SURFACE_SIDE_STYLE('',(#1298,#1301));
#1298 = SURFACE_STYLE_FILL_AREA(#1299);
#1299 = FILL_AREA_STYLE('',(#1300));
#1300 = FILL_AREA_STYLE_COLOUR('',#1263);
#1301 = SURFACE_STYLE_RENDERING_WITH_PROPERTIES(.NORMAL_SHADING.,#1263,(
    #1302));
#1302 = SURFACE_STYLE_TRANSPARENT(1.);
#1303 = OVER_RIDING_STYLED_ITEM('overriding color',(#1304),#236,#1256);
#1304 = PRESENTATION_STYLE_ASSIGNMENT((#1305));
#1305 = SURFACE_STYLE_USAGE(.BOTH.,#1306);
#1306 = SURFACE_SIDE_STYLE('',(#1307,#1310));
#1307 = SURFACE_STYLE_FILL_AREA(#1308);
#1308 = FILL_AREA_STYLE('',(#1309));
#1309 = FILL_AREA_STYLE_COLOUR('',#1263);
#1310 = SURFACE_STYLE_RENDERING_WITH_PROPERTIES(.NORMAL_SHADING.,#1263,(
    #1311));
#1311 = SURFACE_STYLE_TRANSPARENT(1.);
#1312 = OVER_RIDING_STYLED_ITEM('overriding color',(#1313),#353,#1256);
#1313 = PRESENTATION_STYLE_ASSIGNMENT((#1314));
#1314 = SURFACE_STYLE_USAGE(.BOTH.,#1315);
#1315 = SURFACE_SIDE_STYLE('',(#1316,#1319));
#1316 = SURFACE_STYLE_FILL_AREA(#1317);
#1317 = FILL_AREA_STYLE('',(#1318));
#1318 = FILL_AREA_STYLE_COLOUR('',#1263);
#1319 = SURFACE_STYLE_RENDERING_WITH_PROPERTIES(.NORMAL_SHADING.,#1263,(
    #1320));
#1320 = SURFACE_STYLE_TRANSPARENT(1.);
#1321 = OVER_RIDING_STYLED_ITEM('overriding color',(#1322),#370,#1256);
#1322 = PRESENTATION_STYLE_ASSIGNMENT((#1323));
#1323 = SURFACE_STYLE_USAGE(.BOTH.,#1324);
#1324 = SURFACE_SIDE_STYLE('',(#1325,#1328));
#1325 = SURFACE_STYLE_FILL_AREA(#1326);
#1326 = FILL_AREA_STYLE('',(#1327));
#1327 = FILL_AREA_STYLE_COLOUR('',#1263);
#1328 = SURFACE_STYLE_RENDERING_WITH_PROPERTIES(.NORMAL_SHADING.,#1263,(
    #1329));
#1329 = SURFACE_STYLE_TRANSPARENT(1.);
#1330 = OVER_RIDING_STYLED_ITEM('overriding color',(#1331),#387,#1256);
#1331 = PRESENTATION_STYLE_ASSIGNMENT((#1332));
#1332 = SURFACE_STYLE_USAGE(.BOTH.,#1333);
#1333 = SURFACE_SIDE_STYLE('',(#1334,#1337));
#1334 = SURFACE_STYLE_FILL_AREA(#1335);
#1335 = FILL_AREA_STYLE('',(#1336));
#1336 = FILL_AREA_STYLE_COLOUR('',#1263);
#1337 = SURFACE_STYLE_RENDERING_WITH_PROPERTIES(.NORMAL_SHADING.,#1263,(
    #1338));
#1338 = SURFACE_STYLE_TRANSPARENT(1.);
#1339 = OVER_RIDING_STYLED_ITEM('overriding color',(#1340),#404,#1256);
#1340 = PRESENTATION_STYLE_ASSIGNMENT((#1341));
#1341 = SURFACE_STYLE_USAGE(.BOTH.,#1342);
#1342 = SURFACE_SIDE_STYLE('',(#1343,#1346));
#1343 = SURFACE_STYLE_FILL_AREA(#1344);
#1344 = FILL_AREA_STYLE('',(#1345));
#1345 = FILL_AREA_STYLE_COLOUR('',#1263);
#1346 = SURFACE_STYLE_RENDERING_WITH_PROPERTIES(.NORMAL_SHADING.,#1263,(
    #1347));
#1347 = SURFACE_STYLE_TRANSPARENT(1.);
#1348 = OVER_RIDING_STYLED_ITEM('overriding color',(#1349),#421,#1256);
#1349 = PRESENTATION_STYLE_ASSIGNMENT((#1350));
#1350 = SURFACE_STYLE_USAGE(.BOTH.,#1351);
#1351 = SURFACE_SIDE_STYLE('',(#1352,#1355));
#1352 = SURFACE_STYLE_FILL_AREA(#1353);
#1353 = FILL_AREA_STYLE('',(#1354));
#1354 = FILL_AREA_STYLE_COLOUR('',#1263);
#1355 = SURFACE_STYLE_RENDERING_WITH_PROPERTIES(.NORMAL_SHADING.,#1263,(
    #1356));
#1356 = SURFACE_STYLE_TRANSPARENT(1.);
#1357 = OVER_RIDING_STYLED_ITEM('overriding color',(#1358),#433,#1256);
#1358 = PRESENTATION_STYLE_ASSIGNMENT((#1359));
#1359 = SURFACE_STYLE_USAGE(.BOTH.,#1360);
#1360 = SURFACE_SIDE_STYLE('',(#1361,#1365));
#1361 = SURFACE_STYLE_FILL_AREA(#1362);
#1362 = FILL_AREA_STYLE('',(#1363));
#1363 = FILL_AREA_STYLE_COLOUR('',#1364);
#1364 = COLOUR_RGB('',0.858823546443,0.737254912529,0.494117641438);
#1365 = SURFACE_STYLE_RENDERING_WITH_PROPERTIES(.NORMAL_SHADING.,#1364,(
    #1366));
#1366 = SURFACE_STYLE_TRANSPARENT(1.);
#1367 = OVER_RIDING_STYLED_ITEM('overriding color',(#1368),#464,#1256);
#1368 = PRESENTATION_STYLE_ASSIGNMENT((#1369));
#1369 = SURFACE_STYLE_USAGE(.BOTH.,#1370);
#1370 = SURFACE_SIDE_STYLE('',(#1371,#1374));
#1371 = SURFACE_STYLE_FILL_AREA(#1372);
#1372 = FILL_AREA_STYLE('',(#1373));
#1373 = FILL_AREA_STYLE_COLOUR('',#1364);
#1374 = SURFACE_STYLE_RENDERING_WITH_PROPERTIES(.NORMAL_SHADING.,#1364,(
    #1375));
#1375 = SURFACE_STYLE_TRANSPARENT(1.);
#1376 = OVER_RIDING_STYLED_ITEM('overriding color',(#1377),#488,#1256);
#1377 = PRESENTATION_STYLE_ASSIGNMENT((#1378));
#1378 = SURFACE_STYLE_USAGE(.BOTH.,#1379);
#1379 = SURFACE_SIDE_STYLE('',(#1380,#1383));
#1380 = SURFACE_STYLE_FILL_AREA(#1381);
#1381 = FILL_AREA_STYLE('',(#1382));
#1382 = FILL_AREA_STYLE_COLOUR('',#1364);
#1383 = SURFACE_STYLE_RENDERING_WITH_PROPERTIES(.NORMAL_SHADING.,#1364,(
    #1384));
#1384 = SURFACE_STYLE_TRANSPARENT(1.);
#1385 = OVER_RIDING_STYLED_ITEM('overriding color',(#1386),#512,#1256);
#1386 = PRESENTATION_STYLE_ASSIGNMENT((#1387));
#1387 = SURFACE_STYLE_USAGE(.BOTH.,#1388);
#1388 = SURFACE_SIDE_STYLE('',(#1389,#1392));
#1389 = SURFACE_STYLE_FILL_AREA(#1390);
#1390 = FILL_AREA_STYLE('',(#1391));
#1391 = FILL_AREA_STYLE_COLOUR('',#1364);
#1392 = SURFACE_STYLE_RENDERING_WITH_PROPERTIES(.NORMAL_SHADING.,#1364,(
    #1393));
#1393 = SURFACE_STYLE_TRANSPARENT(1.);
#1394 = OVER_RIDING_STYLED_ITEM('overriding color',(#1395),#529,#1256);
#1395 = PRESENTATION_STYLE_ASSIGNMENT((#1396));
#1396 = SURFACE_STYLE_USAGE(.BOTH.,#1397);
#1397 = SURFACE_SIDE_STYLE('',(#1398,#1401));
#1398 = SURFACE_STYLE_FILL_AREA(#1399);
#1399 = FILL_AREA_STYLE('',(#1400));
#1400 = FILL_AREA_STYLE_COLOUR('',#1364);
#1401 = SURFACE_STYLE_RENDERING_WITH_PROPERTIES(.NORMAL_SHADING.,#1364,(
    #1402));
#1402 = SURFACE_STYLE_TRANSPARENT(1.);
#1403 = OVER_RIDING_STYLED_ITEM('overriding color',(#1404),#560,#1256);
#1404 = PRESENTATION_STYLE_ASSIGNMENT((#1405));
#1405 = SURFACE_STYLE_USAGE(.BOTH.,#1406);
#1406 = SURFACE_SIDE_STYLE('',(#1407,#1410));
#1407 = SURFACE_STYLE_FILL_AREA(#1408);
#1408 = FILL_AREA_STYLE('',(#1409));
#1409 = FILL_AREA_STYLE_COLOUR('',#1364);
#1410 = SURFACE_STYLE_RENDERING_WITH_PROPERTIES(.NORMAL_SHADING.,#1364,(
    #1411));
#1411 = SURFACE_STYLE_TRANSPARENT(1.);
#1412 = OVER_RIDING_STYLED_ITEM('overriding color',(#1413),#584,#1256);
#1413 = PRESENTATION_STYLE_ASSIGNMENT((#1414));
#1414 = SURFACE_STYLE_USAGE(.BOTH.,#1415);
#1415 = SURFACE_SIDE_STYLE('',(#1416,#1419));
#1416 = SURFACE_STYLE_FILL_AREA(#1417);
#1417 = FILL_AREA_STYLE('',(#1418));
#1418 = FILL_AREA_STYLE_COLOUR('',#1364);
#1419 = SURFACE_STYLE_RENDERING_WITH_PROPERTIES(.NORMAL_SHADING.,#1364,(
    #1420));
#1420 = SURFACE_STYLE_TRANSPARENT(1.);
#1421 = OVER_RIDING_STYLED_ITEM('overriding color',(#1422),#608,#1256);
#1422 = PRESENTATION_STYLE_ASSIGNMENT((#1423));
#1423 = SURFACE_STYLE_USAGE(.BOTH.,#1424);
#1424 = SURFACE_SIDE_STYLE('',(#1425,#1428));
#1425 = SURFACE_STYLE_FILL_AREA(#1426);
#1426 = FILL_AREA_STYLE('',(#1427));
#1427 = FILL_AREA_STYLE_COLOUR('',#1364);
#1428 = SURFACE_STYLE_RENDERING_WITH_PROPERTIES(.NORMAL_SHADING.,#1364,(
    #1429));
#1429 = SURFACE_STYLE_TRANSPARENT(1.);
#1430 = OVER_RIDING_STYLED_ITEM('overriding color',(#1431),#625,#1256);
#1431 = PRESENTATION_STYLE_ASSIGNMENT((#1432));
#1432 = SURFACE_STYLE_USAGE(.BOTH.,#1433);
#1433 = SURFACE_SIDE_STYLE('',(#1434,#1437));
#1434 = SURFACE_STYLE_FILL_AREA(#1435);
#1435 = FILL_AREA_STYLE('',(#1436));
#1436 = FILL_AREA_STYLE_COLOUR('',#1364);
#1437 = SURFACE_STYLE_RENDERING_WITH_PROPERTIES(.NORMAL_SHADING.,#1364,(
    #1438));
#1438 = SURFACE_STYLE_TRANSPARENT(1.);
#1439 = OVER_RIDING_STYLED_ITEM('overriding color',(#1440),#656,#1256);
#1440 = PRESENTATION_STYLE_ASSIGNMENT((#1441));
#1441 = SURFACE_STYLE_USAGE(.BOTH.,#1442);
#1442 = SURFACE_SIDE_STYLE('',(#1443,#1446));
#1443 = SURFACE_STYLE_FILL_AREA(#1444);
#1444 = FILL_AREA_STYLE('',(#1445));
#1445 = FILL_AREA_STYLE_COLOUR('',#1364);
#1446 = SURFACE_STYLE_RENDERING_WITH_PROPERTIES(.NORMAL_SHADING.,#1364,(
    #1447));
#1447 = SURFACE_STYLE_TRANSPARENT(1.);
#1448 = OVER_RIDING_STYLED_ITEM('overriding color',(#1449),#680,#1256);
#1449 = PRESENTATION_STYLE_ASSIGNMENT((#1450));
#1450 = SURFACE_STYLE_USAGE(.BOTH.,#1451);
#1451 = SURFACE_SIDE_STYLE('',(#1452,#1455));
#1452 = SURFACE_STYLE_FILL_AREA(#1453);
#1453 = FILL_AREA_STYLE('',(#1454));
#1454 = FILL_AREA_STYLE_COLOUR('',#1364);
#1455 = SURFACE_STYLE_RENDERING_WITH_PROPERTIES(.NORMAL_SHADING.,#1364,(
    #1456));
#1456 = SURFACE_STYLE_TRANSPARENT(1.);
#1457 = OVER_RIDING_STYLED_ITEM('overriding color',(#1458),#704,#1256);
#1458 = PRESENTATION_STYLE_ASSIGNMENT((#1459));
#1459 = SURFACE_STYLE_USAGE(.BOTH.,#1460);
#1460 = SURFACE_SIDE_STYLE('',(#1461,#1464));
#1461 = SURFACE_STYLE_FILL_AREA(#1462);
#1462 = FILL_AREA_STYLE('',(#1463));
#1463 = FILL_AREA_STYLE_COLOUR('',#1364);
#1464 = SURFACE_STYLE_RENDERING_WITH_PROPERTIES(.NORMAL_SHADING.,#1364,(
    #1465));
#1465 = SURFACE_STYLE_TRANSPARENT(1.);
#1466 = OVER_RIDING_STYLED_ITEM('overriding color',(#1467),#721,#1256);
#1467 = PRESENTATION_STYLE_ASSIGNMENT((#1468));
#1468 = SURFACE_STYLE_USAGE(.BOTH.,#1469);
#1469 = SURFACE_SIDE_STYLE('',(#1470,#1473));
#1470 = SURFACE_STYLE_FILL_AREA(#1471);
#1471 = FILL_AREA_STYLE('',(#1472));
#1472 = FILL_AREA_STYLE_COLOUR('',#1364);
#1473 = SURFACE_STYLE_RENDERING_WITH_PROPERTIES(.NORMAL_SHADING.,#1364,(
    #1474));
#1474 = SURFACE_STYLE_TRANSPARENT(1.);
#1475 = OVER_RIDING_STYLED_ITEM('overriding color',(#1476),#752,#1256);
#1476 = PRESENTATION_STYLE_ASSIGNMENT((#1477));
#1477 = SURFACE_STYLE_USAGE(.BOTH.,#1478);
#1478 = SURFACE_SIDE_STYLE('',(#1479,#1482));
#1479 = SURFACE_STYLE_FILL_AREA(#1480);
#1480 = FILL_AREA_STYLE('',(#1481));
#1481 = FILL_AREA_STYLE_COLOUR('',#1364);
#1482 = SURFACE_STYLE_RENDERING_WITH_PROPERTIES(.NORMAL_SHADING.,#1364,(
    #1483));
#1483 = SURFACE_STYLE_TRANSPARENT(1.);
#1484 = OVER_RIDING_STYLED_ITEM('overriding color',(#1485),#776,#1256);
#1485 = PRESENTATION_STYLE_ASSIGNMENT((#1486));
#1486 = SURFACE_STYLE_USAGE(.BOTH.,#1487);
#1487 = SURFACE_SIDE_STYLE('',(#1488,#1491));
#1488 = SURFACE_STYLE_FILL_AREA(#1489);
#1489 = FILL_AREA_STYLE('',(#1490));
#1490 = FILL_AREA_STYLE_COLOUR('',#1364);
#1491 = SURFACE_STYLE_RENDERING_WITH_PROPERTIES(.NORMAL_SHADING.,#1364,(
    #1492));
#1492 = SURFACE_STYLE_TRANSPARENT(1.);
#1493 = OVER_RIDING_STYLED_ITEM('overriding color',(#1494),#800,#1256);
#1494 = PRESENTATION_STYLE_ASSIGNMENT((#1495));
#1495 = SURFACE_STYLE_USAGE(.BOTH.,#1496);
#1496 = SURFACE_SIDE_STYLE('',(#1497,#1500));
#1497 = SURFACE_STYLE_FILL_AREA(#1498);
#1498 = FILL_AREA_STYLE('',(#1499));
#1499 = FILL_AREA_STYLE_COLOUR('',#1364);
#1500 = SURFACE_STYLE_RENDERING_WITH_PROPERTIES(.NORMAL_SHADING.,#1364,(
    #1501));
#1501 = SURFACE_STYLE_TRANSPARENT(1.);
#1502 = OVER_RIDING_STYLED_ITEM('overriding color',(#1503),#817,#1256);
#1503 = PRESENTATION_STYLE_ASSIGNMENT((#1504));
#1504 = SURFACE_STYLE_USAGE(.BOTH.,#1505);
#1505 = SURFACE_SIDE_STYLE('',(#1506,#1509));
#1506 = SURFACE_STYLE_FILL_AREA(#1507);
#1507 = FILL_AREA_STYLE('',(#1508));
#1508 = FILL_AREA_STYLE_COLOUR('',#1364);
#1509 = SURFACE_STYLE_RENDERING_WITH_PROPERTIES(.NORMAL_SHADING.,#1364,(
    #1510));
#1510 = SURFACE_STYLE_TRANSPARENT(1.);
#1511 = OVER_RIDING_STYLED_ITEM('overriding color',(#1512),#848,#1256);
#1512 = PRESENTATION_STYLE_ASSIGNMENT((#1513));
#1513 = SURFACE_STYLE_USAGE(.BOTH.,#1514);
#1514 = SURFACE_SIDE_STYLE('',(#1515,#1518));
#1515 = SURFACE_STYLE_FILL_AREA(#1516);
#1516 = FILL_AREA_STYLE('',(#1517));
#1517 = FILL_AREA_STYLE_COLOUR('',#1364);
#1518 = SURFACE_STYLE_RENDERING_WITH_PROPERTIES(.NORMAL_SHADING.,#1364,(
    #1519));
#1519 = SURFACE_STYLE_TRANSPARENT(1.);
#1520 = OVER_RIDING_STYLED_ITEM('overriding color',(#1521),#872,#1256);
#1521 = PRESENTATION_STYLE_ASSIGNMENT((#1522));
#1522 = SURFACE_STYLE_USAGE(.BOTH.,#1523);
#1523 = SURFACE_SIDE_STYLE('',(#1524,#1527));
#1524 = SURFACE_STYLE_FILL_AREA(#1525);
#1525 = FILL_AREA_STYLE('',(#1526));
#1526 = FILL_AREA_STYLE_COLOUR('',#1364);
#1527 = SURFACE_STYLE_RENDERING_WITH_PROPERTIES(.NORMAL_SHADING.,#1364,(
    #1528));
#1528 = SURFACE_STYLE_TRANSPARENT(1.);
#1529 = OVER_RIDING_STYLED_ITEM('overriding color',(#1530),#896,#1256);
#1530 = PRESENTATION_STYLE_ASSIGNMENT((#1531));
#1531 = SURFACE_STYLE_USAGE(.BOTH.,#1532);
#1532 = SURFACE_SIDE_STYLE('',(#1533,#1536));
#1533 = SURFACE_STYLE_FILL_AREA(#1534);
#1534 = FILL_AREA_STYLE('',(#1535));
#1535 = FILL_AREA_STYLE_COLOUR('',#1364);
#1536 = SURFACE_STYLE_RENDERING_WITH_PROPERTIES(.NORMAL_SHADING.,#1364,(
    #1537));
#1537 = SURFACE_STYLE_TRANSPARENT(1.);
#1538 = OVER_RIDING_STYLED_ITEM('overriding color',(#1539),#913,#1256);
#1539 = PRESENTATION_STYLE_ASSIGNMENT((#1540));
#1540 = SURFACE_STYLE_USAGE(.BOTH.,#1541);
#1541 = SURFACE_SIDE_STYLE('',(#1542,#1545));
#1542 = SURFACE_STYLE_FILL_AREA(#1543);
#1543 = FILL_AREA_STYLE('',(#1544));
#1544 = FILL_AREA_STYLE_COLOUR('',#1364);
#1545 = SURFACE_STYLE_RENDERING_WITH_PROPERTIES(.NORMAL_SHADING.,#1364,(
    #1546));
#1546 = SURFACE_STYLE_TRANSPARENT(1.);
#1547 = OVER_RIDING_STYLED_ITEM('overriding color',(#1548),#944,#1256);
#1548 = PRESENTATION_STYLE_ASSIGNMENT((#1549));
#1549 = SURFACE_STYLE_USAGE(.BOTH.,#1550);
#1550 = SURFACE_SIDE_STYLE('',(#1551,#1554));
#1551 = SURFACE_STYLE_FILL_AREA(#1552);
#1552 = FILL_AREA_STYLE('',(#1553));
#1553 = FILL_AREA_STYLE_COLOUR('',#1364);
#1554 = SURFACE_STYLE_RENDERING_WITH_PROPERTIES(.NORMAL_SHADING.,#1364,(
    #1555));
#1555 = SURFACE_STYLE_TRANSPARENT(1.);
#1556 = OVER_RIDING_STYLED_ITEM('overriding color',(#1557),#968,#1256);
#1557 = PRESENTATION_STYLE_ASSIGNMENT((#1558));
#1558 = SURFACE_STYLE_USAGE(.BOTH.,#1559);
#1559 = SURFACE_SIDE_STYLE('',(#1560,#1563));
#1560 = SURFACE_STYLE_FILL_AREA(#1561);
#1561 = FILL_AREA_STYLE('',(#1562));
#1562 = FILL_AREA_STYLE_COLOUR('',#1364);
#1563 = SURFACE_STYLE_RENDERING_WITH_PROPERTIES(.NORMAL_SHADING.,#1364,(
    #1564));
#1564 = SURFACE_STYLE_TRANSPARENT(1.);
#1565 = OVER_RIDING_STYLED_ITEM('overriding color',(#1566),#992,#1256);
#1566 = PRESENTATION_STYLE_ASSIGNMENT((#1567));
#1567 = SURFACE_STYLE_USAGE(.BOTH.,#1568);
#1568 = SURFACE_SIDE_STYLE('',(#1569,#1572));
#1569 = SURFACE_STYLE_FILL_AREA(#1570);
#1570 = FILL_AREA_STYLE('',(#1571));
#1571 = FILL_AREA_STYLE_COLOUR('',#1364);
#1572 = SURFACE_STYLE_RENDERING_WITH_PROPERTIES(.NORMAL_SHADING.,#1364,(
    #1573));
#1573 = SURFACE_STYLE_TRANSPARENT(1.);
#1574 = OVER_RIDING_STYLED_ITEM('overriding color',(#1575),#1009,#1256);
#1575 = PRESENTATION_STYLE_ASSIGNMENT((#1576));
#1576 = SURFACE_STYLE_USAGE(.BOTH.,#1577);
#1577 = SURFACE_SIDE_STYLE('',(#1578,#1581));
#1578 = SURFACE_STYLE_FILL_AREA(#1579);
#1579 = FILL_AREA_STYLE('',(#1580));
#1580 = FILL_AREA_STYLE_COLOUR('',#1364);
#1581 = SURFACE_STYLE_RENDERING_WITH_PROPERTIES(.NORMAL_SHADING.,#1364,(
    #1582));
#1582 = SURFACE_STYLE_TRANSPARENT(1.);
#1583 = OVER_RIDING_STYLED_ITEM('overriding color',(#1584),#1040,#1256);
#1584 = PRESENTATION_STYLE_ASSIGNMENT((#1585));
#1585 = SURFACE_STYLE_USAGE(.BOTH.,#1586);
#1586 = SURFACE_SIDE_STYLE('',(#1587,#1590));
#1587 = SURFACE_STYLE_FILL_AREA(#1588);
#1588 = FILL_AREA_STYLE('',(#1589));
#1589 = FILL_AREA_STYLE_COLOUR('',#1364);
#1590 = SURFACE_STYLE_RENDERING_WITH_PROPERTIES(.NORMAL_SHADING.,#1364,(
    #1591));
#1591 = SURFACE_STYLE_TRANSPARENT(1.);
#1592 = OVER_RIDING_STYLED_ITEM('overriding color',(#1593),#1064,#1256);
#1593 = PRESENTATION_STYLE_ASSIGNMENT((#1594));
#1594 = SURFACE_STYLE_USAGE(.BOTH.,#1595);
#1595 = SURFACE_SIDE_STYLE('',(#1596,#1599));
#1596 = SURFACE_STYLE_FILL_AREA(#1597);
#1597 = FILL_AREA_STYLE('',(#1598));
#1598 = FILL_AREA_STYLE_COLOUR('',#1364);
#1599 = SURFACE_STYLE_RENDERING_WITH_PROPERTIES(.NORMAL_SHADING.,#1364,(
    #1600));
#1600 = SURFACE_STYLE_TRANSPARENT(1.);
#1601 = OVER_RIDING_STYLED_ITEM('overriding color',(#1602),#1088,#1256);
#1602 = PRESENTATION_STYLE_ASSIGNMENT((#1603));
#1603 = SURFACE_STYLE_USAGE(.BOTH.,#1604);
#1604 = SURFACE_SIDE_STYLE('',(#1605,#1608));
#1605 = SURFACE_STYLE_FILL_AREA(#1606);
#1606 = FILL_AREA_STYLE('',(#1607));
#1607 = FILL_AREA_STYLE_COLOUR('',#1364);
#1608 = SURFACE_STYLE_RENDERING_WITH_PROPERTIES(.NORMAL_SHADING.,#1364,(
    #1609));
#1609 = SURFACE_STYLE_TRANSPARENT(1.);
#1610 = OVER_RIDING_STYLED_ITEM('overriding color',(#1611),#1105,#1256);
#1611 = PRESENTATION_STYLE_ASSIGNMENT((#1612));
#1612 = SURFACE_STYLE_USAGE(.BOTH.,#1613);
#1613 = SURFACE_SIDE_STYLE('',(#1614,#1617));
#1614 = SURFACE_STYLE_FILL_AREA(#1615);
#1615 = FILL_AREA_STYLE('',(#1616));
#1616 = FILL_AREA_STYLE_COLOUR('',#1364);
#1617 = SURFACE_STYLE_RENDERING_WITH_PROPERTIES(.NORMAL_SHADING.,#1364,(
    #1618));
#1618 = SURFACE_STYLE_TRANSPARENT(1.);
#1619 = OVER_RIDING_STYLED_ITEM('overriding color',(#1620),#1136,#1256);
#1620 = PRESENTATION_STYLE_ASSIGNMENT((#1621));
#1621 = SURFACE_STYLE_USAGE(.BOTH.,#1622);
#1622 = SURFACE_SIDE_STYLE('',(#1623,#1626));
#1623 = SURFACE_STYLE_FILL_AREA(#1624);
#1624 = FILL_AREA_STYLE('',(#1625));
#1625 = FILL_AREA_STYLE_COLOUR('',#1364);
#1626 = SURFACE_STYLE_RENDERING_WITH_PROPERTIES(.NORMAL_SHADING.,#1364,(
    #1627));
#1627 = SURFACE_STYLE_TRANSPARENT(1.);
#1628 = OVER_RIDING_STYLED_ITEM('overriding color',(#1629),#1160,#1256);
#1629 = PRESENTATION_STYLE_ASSIGNMENT((#1630));
#1630 = SURFACE_STYLE_USAGE(.BOTH.,#1631);
#1631 = SURFACE_SIDE_STYLE('',(#1632,#1635));
#1632 = SURFACE_STYLE_FILL_AREA(#1633);
#1633 = FILL_AREA_STYLE('',(#1634));
#1634 = FILL_AREA_STYLE_COLOUR('',#1364);
#1635 = SURFACE_STYLE_RENDERING_WITH_PROPERTIES(.NORMAL_SHADING.,#1364,(
    #1636));
#1636 = SURFACE_STYLE_TRANSPARENT(1.);
#1637 = OVER_RIDING_STYLED_ITEM('overriding color',(#1638),#1184,#1256);
#1638 = PRESENTATION_STYLE_ASSIGNMENT((#1639));
#1639 = SURFACE_STYLE_USAGE(.BOTH.,#1640);
#1640 = SURFACE_SIDE_STYLE('',(#1641,#1644));
#1641 = SURFACE_STYLE_FILL_AREA(#1642);
#1642 = FILL_AREA_STYLE('',(#1643));
#1643 = FILL_AREA_STYLE_COLOUR('',#1364);
#1644 = SURFACE_STYLE_RENDERING_WITH_PROPERTIES(.NORMAL_SHADING.,#1364,(
    #1645));
#1645 = SURFACE_STYLE_TRANSPARENT(1.);
#1646 = OVER_RIDING_STYLED_ITEM('overriding color',(#1647),#1201,#1256);
#1647 = PRESENTATION_STYLE_ASSIGNMENT((#1648));
#1648 = SURFACE_STYLE_USAGE(.BOTH.,#1649);
#1649 = SURFACE_SIDE_STYLE('',(#1650,#1653));
#1650 = SURFACE_STYLE_FILL_AREA(#1651);
#1651 = FILL_AREA_STYLE('',(#1652));
#1652 = FILL_AREA_STYLE_COLOUR('',#1364);
#1653 = SURFACE_STYLE_RENDERING_WITH_PROPERTIES(.NORMAL_SHADING.,#1364,(
    #1654));
#1654 = SURFACE_STYLE_TRANSPARENT(1.);
#1655 = OVER_RIDING_STYLED_ITEM('overriding color',(#1656),#1213,#1256);
#1656 = PRESENTATION_STYLE_ASSIGNMENT((#1657));
#1657 = SURFACE_STYLE_USAGE(.BOTH.,#1658);
#1658 = SURFACE_SIDE_STYLE('',(#1659,#1662));
#1659 = SURFACE_STYLE_FILL_AREA(#1660);
#1660 = FILL_AREA_STYLE('',(#1661));
#1661 = FILL_AREA_STYLE_COLOUR('',#1364);
#1662 = SURFACE_STYLE_RENDERING_WITH_PROPERTIES(.NORMAL_SHADING.,#1364,(
    #1663));
#1663 = SURFACE_STYLE_TRANSPARENT(1.);
#1664 = OVER_RIDING_STYLED_ITEM('overriding color',(#1665),#1225,#1256);
#1665 = PRESENTATION_STYLE_ASSIGNMENT((#1666));
#1666 = SURFACE_STYLE_USAGE(.BOTH.,#1667);
#1667 = SURFACE_SIDE_STYLE('',(#1668,#1671));
#1668 = SURFACE_STYLE_FILL_AREA(#1669);
#1669 = FILL_AREA_STYLE('',(#1670));
#1670 = FILL_AREA_STYLE_COLOUR('',#1364);
#1671 = SURFACE_STYLE_RENDERING_WITH_PROPERTIES(.NORMAL_SHADING.,#1364,(
    #1672));
#1672 = SURFACE_STYLE_TRANSPARENT(1.);
#1673 = OVER_RIDING_STYLED_ITEM('overriding color',(#1674),#1237,#1256);
#1674 = PRESENTATION_STYLE_ASSIGNMENT((#1675));
#1675 = SURFACE_STYLE_USAGE(.BOTH.,#1676);
#1676 = SURFACE_SIDE_STYLE('',(#1677,#1680));
#1677 = SURFACE_STYLE_FILL_AREA(#1678);
#1678 = FILL_AREA_STYLE('',(#1679));
#1679 = FILL_AREA_STYLE_COLOUR('',#1364);
#1680 = SURFACE_STYLE_RENDERING_WITH_PROPERTIES(.NORMAL_SHADING.,#1364,(
    #1681));
#1681 = SURFACE_STYLE_TRANSPARENT(1.);
ENDSEC;
END-ISO-10303-21;
